<?xml version="1.0"?>
<Project_Data Version="8.00">
<Project_Settings>
<ProfileName>MP4 only (up to 1080p)</ProfileName>
<ProjectWidth>962</ProjectWidth>
<ProjectHeight>720</ProjectHeight>
<IsCustomProject>1</IsCustomProject>
<SavedProjectSettings>1</SavedProjectSettings>
<LastFlashTemplate>-1</LastFlashTemplate>
</Project_Settings>


<AutoSaveFile>C:\Users\Spark\AppData\Local\TechSmith\Camtasia Studio\8.0\Auto-Saves\Untitled4e50ddc.autosave.camproj</AutoSaveFile>

<ProjectID>F281B9A7-EA94-4FD8-86F8-810FC51C952F</ProjectID>

<PowerPointProject>0</PowerPointProject>

<PowerPointFilename></PowerPointFilename>


<Project_Notes>
</Project_Notes>

<Project_MetaData>
<Project_MetaData_Object>
<FieldArrayKey>8</FieldArrayKey>
<Value>Calculator Video1</Value>
</Project_MetaData_Object>
<Project_MetaData_Object>
<FieldArrayKey>13</FieldArrayKey>
<Value>2016-03-12 07:38:47 AM</Value>
</Project_MetaData_Object>
<Project_MetaData_Object>
<FieldArrayKey>16</FieldArrayKey>
<Value>ENU</Value>
</Project_MetaData_Object>
</Project_MetaData>

<CSMLData>
<GoProject id="1" version="3.0" >
 <Project id="2" editRate="30/1" version="3.0" >
  <Author></Author>
  <Comment></Comment>
  <System></System>
  <SourceBin id="3"  >
    <Source id="4" src="C:\Users\Spark\Documents\Camtasia Studio\capture-3.trec" lastMod="20160312T083542" rect="(0,0,992,744)" >
      <SourceTrack range="(0,10868)" type="0" editRate="30/1" trackRect="(0,0,992,744)" sampleRate="0/1" bitDepth="0" numChannels="0" filename="capture-3.trec!Strack0.tsc2" metaData="capture-3.trec;" />
    </Source>
    <Source id="5" src="C:\Users\Spark\Dropbox\JustIT\Portfolio\VS Projects\Calculator\Calculator\Calculator\Images\Install Images\1. Splash Bitmap 465-281px\Splash-Bitmap.jpg" lastMod="20151117T193014" rect="(0,0,465,281)" >
      <SourceTrack range="(0,1)" type="1" editRate="10000000/1" trackRect="(0,0,465,281)" sampleRate="0/1" bitDepth="24" numChannels="0" filename="" metaData="" />
    </Source>
  </SourceBin>
  <Timeline id="6"  >
   <Attributes>
    <Attribute id="7" value="962" name="width"/>
    <Attribute id="8" value="720" name="height"/>
    <Attribute id="9" value="(0,0,0,255)" name="backgroundColor"/>
   </Attributes>
    <GenericMixer id="10"  name="Unified Mixer">
     <MetaData>
      <entry key="MixerType" val="TimelineMixer"/>
     </MetaData>
     <Tracks>
      <GenericTrack id="11"  >
       <Attributes>
        <Attribute id="12" value="" name="ident"/>
        <Attribute id="13" value="0" name="audioMuted"/>
        <Attribute id="14" value="0" name="videoHidden"/>
       </Attributes>
       <MetaData>
        <entry key="IsLocked" val="False"/>
        <entry key="WinTrackHeight" val="93"/>
       </MetaData>
       <Medias>
        <IMFile id="15" start="0" duration="8" scalar="1/1" mediaStart="0/1" mediaDuration="1/1" trackNumber="0" src="5" trimStartSum="39/1" >
         <Transformer>
          <VectorParam id="16"  name="translation">
           <InterpolatingParam id="17" interp="linr"  time="-9999999/1" value="1.5987211554602254e-010" leadInLength="0/1"  />
           <InterpolatingParam id="18" interp="linr"  time="-9999999/1" value="-3.1434410630026832e-011" leadInLength="0/1"  />
           <InterpolatingParam id="19" interp="linr"  time="-9999999/1" value="3.4106051316482886e-010" leadInLength="0/1"  />
          </VectorParam>
          <VectorParam id="20"  name="rotation">
           <InterpolatingParam id="21" interp="linr"  time="-9999999/1" value="0" leadInLength="0/1"  />
           <InterpolatingParam id="22" interp="linr"  time="-9999999/1" value="0" leadInLength="0/1"  />
           <InterpolatingParam id="23" interp="linr"  time="-9999999/1" value="0" leadInLength="0/1"  />
          </VectorParam>
          <VectorParam id="24"  name="shear">
           <InterpolatingParam id="25" interp="linr"  time="-9999999/1" value="0" leadInLength="0/1"  />
           <InterpolatingParam id="26" interp="linr"  time="-9999999/1" value="0" leadInLength="0/1"  />
           <InterpolatingParam id="27" interp="linr"  time="-9999999/1" value="0" leadInLength="0/1"  />
          </VectorParam>
          <VectorParam id="28"  name="scale">
           <InterpolatingParam id="29" interp="linr"  time="-9999999/1" value="2.0688172043010562" leadInLength="0/1"  />
           <InterpolatingParam id="30" interp="linr"  time="-9999999/1" value="2.5622775800704778" leadInLength="0/1"  />
           <InterpolatingParam id="31" interp="linr"  time="-9999999/1" value="1" leadInLength="0/1"  />
          </VectorParam>
          <VectorParam id="32"  name="anchor">
           <InterpolatingParam id="33" interp="linr"  time="0/1" value="0" leadInLength="0/1"  />
           <InterpolatingParam id="34" interp="linr"  time="0/1" value="0" leadInLength="0/1"  />
           <InterpolatingParam id="35" interp="linr"  time="0/1" value="0" leadInLength="0/1"  />
          </VectorParam>
         </Transformer>
         <Parameters>
          <VectorParam id="36"  name="sourceCrop">
           <InterpolatingParam id="37" interp="linr"  time="0/1" value="0" leadInLength="0/1"  />
           <InterpolatingParam id="38" interp="linr"  time="0/1" value="0" leadInLength="0/1"  />
           <InterpolatingParam id="39" interp="linr"  time="0/1" value="0" leadInLength="0/1"  />
           <InterpolatingParam id="40" interp="linr"  time="0/1" value="0" leadInLength="0/1"  />
          </VectorParam>
          <VectorParam id="41"  name="geometryCrop">
           <InterpolatingParam id="42" interp="linr"  time="-9999999/1" value="0" leadInLength="0/1"  />
           <InterpolatingParam id="43" interp="linr"  time="-9999999/1" value="0" leadInLength="0/1"  />
           <InterpolatingParam id="44" interp="linr"  time="-9999999/1" value="0" leadInLength="0/1"  />
           <InterpolatingParam id="45" interp="linr"  time="-9999999/1" value="0" leadInLength="0/1"  />
          </VectorParam>
          <InterpolatingParam id="46" interp="linr"  time="-9999999/1" value="1" leadInLength="0/1"  name="opacity"/>
         </Parameters>
         <Attributes>
          <Attribute id="47" value="" name="ident"/>
         </Attributes>
         <MetaData>
          <entry key="WinSubProjectDisplayName" val=""/>
         </MetaData>
         <ExtraData>
          <Entry key="ZoomPanBin">
           <ZoomPanBin id="48"  >
            <ZoomPanKeyframes>
             <ZoomPanKeyframe id="49" timeRangeEnd="-9999999/1" timeRangeDuration="0/1" interpolaterName="linr"  />
            </ZoomPanKeyframes>
           </ZoomPanBin>
          </Entry>
         </ExtraData>
        </IMFile>
        <UnifiedMedia id="50"  >
         <AudioTransition id="51" start="8" duration="32" >
          <Parameters>
           <InterpolatingParam id="52" interp="linr"  time="0/1" value="1" leadInLength="0/1"  name="volume"/>
           <Parameter id="53"  name="captions"/>
          </Parameters>
          <Effects>
           <GenericEffect id="54" name = "AudioTransition" >
            <Parameters>
            <Parameter id="55"   name="audioEdgeModType">
             <Keyframes>
             <Keyframe id="56"  time="0/1" value="0" leadInLength="0/1"  />
             </Keyframes>
            </Parameter>
            <Parameter id="57"   name="audioTransitionType">
             <Keyframes>
             <Keyframe id="58"  time="0/1" value="" leadInLength="0/1"  />
             </Keyframes>
            </Parameter>
            </Parameters>
            <MetaData>
            </MetaData>
           </GenericEffect>
          </Effects>
          <Attributes>
           <Attribute id="59" value="" name="ident"/>
           <Attribute id="60" value="0" name="sampleRate"/>
           <Attribute id="61" value="0" name="bitDepth"/>
           <Attribute id="62" value="1" name="gain"/>
           <Attribute id="63" value="0" name="mixToMono"/>
          </Attributes>
         </AudioTransition>
         <ImageTransition id="64" start="8" duration="32" >
          <Transformer>
           <VectorParam id="65"  name="translation">
            <InterpolatingParam id="66" interp="linr"  time="0/1" value="0" leadInLength="0/1"  />
            <InterpolatingParam id="67" interp="linr"  time="0/1" value="0" leadInLength="0/1"  />
            <InterpolatingParam id="68" interp="linr"  time="0/1" value="0" leadInLength="0/1"  />
           </VectorParam>
           <VectorParam id="69"  name="rotation">
            <InterpolatingParam id="70" interp="linr"  time="0/1" value="0" leadInLength="0/1"  />
            <InterpolatingParam id="71" interp="linr"  time="0/1" value="0" leadInLength="0/1"  />
            <InterpolatingParam id="72" interp="linr"  time="0/1" value="0" leadInLength="0/1"  />
           </VectorParam>
           <VectorParam id="73"  name="shear">
            <InterpolatingParam id="74" interp="linr"  time="0/1" value="0" leadInLength="0/1"  />
            <InterpolatingParam id="75" interp="linr"  time="0/1" value="0" leadInLength="0/1"  />
            <InterpolatingParam id="76" interp="linr"  time="0/1" value="0" leadInLength="0/1"  />
           </VectorParam>
           <VectorParam id="77"  name="scale">
            <InterpolatingParam id="78" interp="linr"  time="0/1" value="1" leadInLength="0/1"  />
            <InterpolatingParam id="79" interp="linr"  time="0/1" value="1" leadInLength="0/1"  />
            <InterpolatingParam id="80" interp="linr"  time="0/1" value="1" leadInLength="0/1"  />
           </VectorParam>
           <VectorParam id="81"  name="anchor">
            <InterpolatingParam id="82" interp="linr"  time="0/1" value="0" leadInLength="0/1"  />
            <InterpolatingParam id="83" interp="linr"  time="0/1" value="0" leadInLength="0/1"  />
            <InterpolatingParam id="84" interp="linr"  time="0/1" value="0" leadInLength="0/1"  />
           </VectorParam>
          </Transformer>
          <Parameters>
           <VectorParam id="85"  name="sourceCrop">
            <InterpolatingParam id="86" interp="linr"  time="0/1" value="0" leadInLength="0/1"  />
            <InterpolatingParam id="87" interp="linr"  time="0/1" value="0" leadInLength="0/1"  />
            <InterpolatingParam id="88" interp="linr"  time="0/1" value="0" leadInLength="0/1"  />
            <InterpolatingParam id="89" interp="linr"  time="0/1" value="0" leadInLength="0/1"  />
           </VectorParam>
           <VectorParam id="90"  name="geometryCrop">
            <InterpolatingParam id="91" interp="linr"  time="0/1" value="0" leadInLength="0/1"  />
            <InterpolatingParam id="92" interp="linr"  time="0/1" value="0" leadInLength="0/1"  />
            <InterpolatingParam id="93" interp="linr"  time="0/1" value="0" leadInLength="0/1"  />
            <InterpolatingParam id="94" interp="linr"  time="0/1" value="0" leadInLength="0/1"  />
           </VectorParam>
           <InterpolatingParam id="95" interp="linr"  time="0/1" value="1" leadInLength="0/1"  name="opacity"/>
          </Parameters>
          <Effects>
           <GenericEffect id="96" name = "VisualTransition" >
            <Parameters>
            <InterpolatingParam id="97" interp="linr"  time="0/1" value="0.5" leadInLength="0/1"   name="leftFramePercentage"/>
            <InterpolatingParam id="98" interp="linr"  time="0/1" value="0.5" leadInLength="0/1"   name="rightFramePercentage"/>
            <Parameter id="99"   name="visualEdgeModType">
             <Keyframes>
             <Keyframe id="100"  time="0/1" value="0" leadInLength="0/1"  />
             </Keyframes>
            </Parameter>
            <Parameter id="101"   name="visualTransitionType">
             <Keyframes>
             <Keyframe id="102"  time="0/1" value="CubeRotate" leadInLength="0/1"  />
             </Keyframes>
            </Parameter>
            </Parameters>
            <MetaData>
            </MetaData>
           </GenericEffect>
          </Effects>
          <Attributes>
           <Attribute id="103" value="" name="ident"/>
          </Attributes>
          <ExtraData>
           <Entry key="ZoomPanBin">
            <ZoomPanBin id="104"  >
             <ZoomPanKeyframes>
             </ZoomPanKeyframes>
            </ZoomPanBin>
           </Entry>
          </ExtraData>
         </ImageTransition>
         <MetaData>
          <entry key="WinSubProjectDisplayName" val=""/>
         </MetaData>
        </UnifiedMedia>
        <StitchedMedia id="105" start="40" duration="3873" scalar="653106117690367979/587208705898739392" mediaStart="36028797018963968/1767362938407741" mediaDuration="1152921504606846976/331088052243589" minMediaStart="0/1" >
         <Transformer>
          <VectorParam id="106"  name="translation">
           <InterpolatingParam id="107" interp="linr"  time="-9999999/1" value="7.8310177353812139e-011" leadInLength="0/1"  />
           <InterpolatingParam id="108" interp="linr"  time="-9999999/1" value="-7.6463566661151596e-012" leadInLength="0/1"  />
           <InterpolatingParam id="109" interp="linr"  time="-9999999/1" value="0" leadInLength="0/1"  />
          </VectorParam>
          <VectorParam id="110"  name="rotation">
           <InterpolatingParam id="111" interp="linr"  time="-9999999/1" value="0" leadInLength="0/1"  />
           <InterpolatingParam id="112" interp="linr"  time="-9999999/1" value="0" leadInLength="0/1"  />
           <InterpolatingParam id="113" interp="linr"  time="-9999999/1" value="0" leadInLength="0/1"  />
          </VectorParam>
          <VectorParam id="114"  name="shear">
           <InterpolatingParam id="115" interp="linr"  time="-9999999/1" value="0" leadInLength="0/1"  />
           <InterpolatingParam id="116" interp="linr"  time="-9999999/1" value="0" leadInLength="0/1"  />
           <InterpolatingParam id="117" interp="linr"  time="-9999999/1" value="0" leadInLength="0/1"  />
          </VectorParam>
          <VectorParam id="118"  name="scale">
           <InterpolatingParam id="119" interp="linr"  time="-9999999/1" value="0.967741935483871" leadInLength="0/1"  />
           <InterpolatingParam id="120" interp="linr"  time="-9999999/1" value="0.967741935483871" leadInLength="0/1"  />
           <InterpolatingParam id="121" interp="linr"  time="-9999999/1" value="1" leadInLength="0/1"  />
          </VectorParam>
          <VectorParam id="122"  name="anchor">
           <InterpolatingParam id="123" interp="linr"  time="0/1" value="0" leadInLength="0/1"  />
           <InterpolatingParam id="124" interp="linr"  time="0/1" value="0" leadInLength="0/1"  />
           <InterpolatingParam id="125" interp="linr"  time="0/1" value="0" leadInLength="0/1"  />
          </VectorParam>
         </Transformer>
         <Parameters>
          <VectorParam id="126"  name="sourceCrop">
           <InterpolatingParam id="127" interp="linr"  time="0/1" value="0" leadInLength="0/1"  />
           <InterpolatingParam id="128" interp="linr"  time="0/1" value="0" leadInLength="0/1"  />
           <InterpolatingParam id="129" interp="linr"  time="0/1" value="0" leadInLength="0/1"  />
           <InterpolatingParam id="130" interp="linr"  time="0/1" value="0" leadInLength="0/1"  />
          </VectorParam>
          <VectorParam id="131"  name="geometryCrop">
           <InterpolatingParam id="132" interp="linr"  time="-9999999/1" value="0" leadInLength="0/1"  />
           <InterpolatingParam id="133" interp="linr"  time="-9999999/1" value="0" leadInLength="0/1"  />
           <InterpolatingParam id="134" interp="linr"  time="-9999999/1" value="0" leadInLength="0/1"  />
           <InterpolatingParam id="135" interp="linr"  time="-9999999/1" value="0" leadInLength="0/1"  />
          </VectorParam>
          <InterpolatingParam id="136" interp="linr"  time="-9999999/1" value="1" leadInLength="0/1"  name="opacity"/>
          <InterpolatingParam id="137" interp="linr"  time="0/1" value="1" leadInLength="0/1"  name="cursorOpacity"/>
          <InterpolatingParam id="138" interp="linr"  time="0/1" value="1" leadInLength="0/1"  name="cursorScale"/>
          <Parameter id="139"  name="captions"/>
         </Parameters>
         <Effects>
          <GenericEffect id="140" range="(-576460752303423488/4294967509,-1/1)" name = "CursorBaseEffectName" >
           <Parameters>
           <InterpolatingParam id="141" interp="linr"  time="-9999999/1" value="1" leadInLength="0/1"   name="cursorSize"/>
           <InterpolatingParam id="142" interp="linr"  time="-9999999/1" value="0" leadInLength="0/1"   name="highlightBlurRadius"/>
           <InterpolatingParam id="143" interp="linr"  time="-9999999/1" value="0" leadInLength="0/1"   name="highlightColorBlue"/>
           <InterpolatingParam id="144" interp="linr"  time="-9999999/1" value="255" leadInLength="0/1"   name="highlightColorGreen"/>
           <InterpolatingParam id="145" interp="linr"  time="-9999999/1" value="255" leadInLength="0/1"   name="highlightColorRed"/>
           <InterpolatingParam id="146" interp="linr"  time="-9999999/1" value="5" leadInLength="0/1"   name="highlightFeatherSize"/>
           <InterpolatingParam id="147" interp="linr"  time="-9999999/1" value="2" leadInLength="0/1"   name="highlightMagnification"/>
           <InterpolatingParam id="148" interp="linr"  time="-9999999/1" value="60" leadInLength="0/1"   name="highlightOpacity"/>
           <InterpolatingParam id="149" interp="linr"  time="-9999999/1" value="45" leadInLength="0/1"   name="highlightSize"/>
           <Parameter id="150"   name="highlightType">
            <Keyframes>
            <Keyframe id="151"  time="-9999999/1" value="0" leadInLength="0/1"  />
            </Keyframes>
           </Parameter>
           <InterpolatingParam id="152" interp="linr"  time="-9999999/1" value="0" leadInLength="0/1"   name="leftClickColorBlue"/>
           <InterpolatingParam id="153" interp="linr"  time="-9999999/1" value="0" leadInLength="0/1"   name="leftClickColorGreen"/>
           <InterpolatingParam id="154" interp="linr"  time="-9999999/1" value="255" leadInLength="0/1"   name="leftClickColorRed"/>
           <InterpolatingParam id="155" interp="linr"  time="-9999999/1" value="0.80000000000000004" leadInLength="0/1"   name="leftClickDuration"/>
           <InterpolatingParam id="156" interp="linr"  time="-9999999/1" value="20" leadInLength="0/1"   name="leftClickSize"/>
           <Parameter id="157"   name="leftClickSoundFilename">
            <Keyframes>
            <Keyframe id="158"  time="-9999999/1" value="" leadInLength="0/1"  />
            </Keyframes>
           </Parameter>
           <InterpolatingParam id="159" interp="linr"  time="-9999999/1" value="0.40000000000000002" leadInLength="0/1"   name="leftClickSoundVolume"/>
           <Parameter id="160"   name="leftClickType">
            <Keyframes>
            <Keyframe id="161"  time="-9999999/1" value="0" leadInLength="0/1"  />
            </Keyframes>
           </Parameter>
           <InterpolatingParam id="162" interp="linr"  time="-9999999/1" value="1" leadInLength="0/1"   name="opacity"/>
           <InterpolatingParam id="163" interp="linr"  time="-9999999/1" value="255" leadInLength="0/1"   name="rightClickColorBlue"/>
           <InterpolatingParam id="164" interp="linr"  time="-9999999/1" value="0" leadInLength="0/1"   name="rightClickColorGreen"/>
           <InterpolatingParam id="165" interp="linr"  time="-9999999/1" value="0" leadInLength="0/1"   name="rightClickColorRed"/>
           <InterpolatingParam id="166" interp="linr"  time="-9999999/1" value="0.80000000000000004" leadInLength="0/1"   name="rightClickDuration"/>
           <InterpolatingParam id="167" interp="linr"  time="-9999999/1" value="20" leadInLength="0/1"   name="rightClickSize"/>
           <Parameter id="168"   name="rightClickSoundFilename">
            <Keyframes>
            <Keyframe id="169"  time="-9999999/1" value="" leadInLength="0/1"  />
            </Keyframes>
           </Parameter>
           <InterpolatingParam id="170" interp="linr"  time="-9999999/1" value="1" leadInLength="0/1"   name="rightClickSoundVolume"/>
           <Parameter id="171"   name="rightClickType">
            <Keyframes>
            <Keyframe id="172"  time="-9999999/1" value="0" leadInLength="0/1"  />
            </Keyframes>
           </Parameter>
           </Parameters>
          </GenericEffect>
         </Effects>
         <Attributes>
          <Attribute id="173" value="" name="ident"/>
         </Attributes>
         <MetaData>
          <entry key="AutoAppliedSmartFocus" val="False"/>
          <entry key="WinSubProjectDisplayName" val=""/>
         </MetaData>
         <ExtraData>
          <Entry key="ZoomPanBin">
           <ZoomPanBin id="174"  >
            <ZoomPanKeyframes>
             <ZoomPanKeyframe id="175" timeRangeEnd="-9999999/1" timeRangeDuration="0/1" interpolaterName=""  />
            </ZoomPanKeyframes>
           </ZoomPanBin>
          </Entry>
          <Entry key="CursorEffectBin">
           <CursorEffectBin id="176"  >
            <CursorEffectKeyframes>
             <CursorEffectKeyframe id="177" timeRangeEnd="-9999999/1" timeRangeDuration="0/1" interpolaterName=""  />
            </CursorEffectKeyframes>
           </CursorEffectBin>
          </Entry>
         </ExtraData>
         <GenericTrack id="178"  >
          <Attributes>
           <Attribute id="179" value="" name="ident"/>
           <Attribute id="180" value="0" name="audioMuted"/>
           <Attribute id="181" value="0" name="videoHidden"/>
          </Attributes>
          <MetaData>
           <entry key="IsLocked" val="False"/>
           <entry key="WinTrackHeight" val="0"/>
          </MetaData>
          <Medias>
           <ScreenVMFile id="182" start="0" duration="714" scalar="1/1" mediaStart="0/1" mediaDuration="714/1" trackNumber="0" src="4" >
            <Transformer>
             <VectorParam id="183"  name="translation">
              <InterpolatingParam id="184" interp="linr"  time="-9999999/1" value="0" leadInLength="0/1"  />
              <InterpolatingParam id="185" interp="linr"  time="-9999999/1" value="0" leadInLength="0/1"  />
              <InterpolatingParam id="186" interp="linr"  time="-9999999/1" value="0" leadInLength="0/1"  />
             </VectorParam>
             <VectorParam id="187"  name="rotation">
              <InterpolatingParam id="188" interp="linr"  time="-9999999/1" value="0" leadInLength="0/1"  />
              <InterpolatingParam id="189" interp="linr"  time="-9999999/1" value="0" leadInLength="0/1"  />
              <InterpolatingParam id="190" interp="linr"  time="-9999999/1" value="0" leadInLength="0/1"  />
             </VectorParam>
             <VectorParam id="191"  name="shear">
              <InterpolatingParam id="192" interp="linr"  time="-9999999/1" value="0" leadInLength="0/1"  />
              <InterpolatingParam id="193" interp="linr"  time="-9999999/1" value="0" leadInLength="0/1"  />
              <InterpolatingParam id="194" interp="linr"  time="-9999999/1" value="0" leadInLength="0/1"  />
             </VectorParam>
             <VectorParam id="195"  name="scale">
              <InterpolatingParam id="196" interp="linr"  time="-9999999/1" value="1" leadInLength="0/1"  />
              <InterpolatingParam id="197" interp="linr"  time="-9999999/1" value="1" leadInLength="0/1"  />
              <InterpolatingParam id="198" interp="linr"  time="-9999999/1" value="1" leadInLength="0/1"  />
             </VectorParam>
             <VectorParam id="199"  name="anchor">
              <InterpolatingParam id="200" interp="linr"  time="0/1" value="0" leadInLength="0/1"  />
              <InterpolatingParam id="201" interp="linr"  time="0/1" value="0" leadInLength="0/1"  />
              <InterpolatingParam id="202" interp="linr"  time="0/1" value="0" leadInLength="0/1"  />
             </VectorParam>
            </Transformer>
            <Parameters>
             <VectorParam id="203"  name="sourceCrop">
              <InterpolatingParam id="204" interp="linr"  time="0/1" value="0" leadInLength="0/1"  />
              <InterpolatingParam id="205" interp="linr"  time="0/1" value="0" leadInLength="0/1"  />
              <InterpolatingParam id="206" interp="linr"  time="0/1" value="0" leadInLength="0/1"  />
              <InterpolatingParam id="207" interp="linr"  time="0/1" value="0" leadInLength="0/1"  />
             </VectorParam>
             <VectorParam id="208"  name="geometryCrop">
              <InterpolatingParam id="209" interp="linr"  time="-9999999/1" value="0" leadInLength="0/1"  />
              <InterpolatingParam id="210" interp="linr"  time="-9999999/1" value="0" leadInLength="0/1"  />
              <InterpolatingParam id="211" interp="linr"  time="-9999999/1" value="0" leadInLength="0/1"  />
              <InterpolatingParam id="212" interp="linr"  time="-9999999/1" value="0" leadInLength="0/1"  />
             </VectorParam>
             <InterpolatingParam id="213" interp="linr"  time="-9999999/1" value="1" leadInLength="0/1"  name="opacity"/>
             <InterpolatingParam id="214" interp="linr"  time="0/1" value="0" leadInLength="0/1"  name="cursorOpacity"/>
             <InterpolatingParam id="215" interp="linr"  time="0/1" value="0" leadInLength="0/1"  name="cursorScale"/>
            </Parameters>
            <Attributes>
             <Attribute id="216" value="" name="ident"/>
            </Attributes>
            <MetaData>
             <entry key="AutoAppliedSmartFocus" val="False"/>
             <entry key="WinSubProjectDisplayName" val=""/>
            </MetaData>
            <ExtraData>
             <Entry key="ZoomPanBin">
              <ZoomPanBin id="217"  >
               <ZoomPanKeyframes>
                <ZoomPanKeyframe id="218" timeRangeEnd="-9999999/1" timeRangeDuration="0/1" interpolaterName=""  />
               </ZoomPanKeyframes>
              </ZoomPanBin>
             </Entry>
             <Entry key="CursorEffectBin">
              <CursorEffectBin id="219"  >
               <CursorEffectKeyframes>
               </CursorEffectKeyframes>
              </CursorEffectBin>
             </Entry>
            </ExtraData>
           </ScreenVMFile>
           <ScreenVMFile id="220" start="714" duration="2" scalar="1/1" mediaStart="900/1" mediaDuration="2/1" trackNumber="0" src="4" >
            <Transformer>
             <VectorParam id="221"  name="translation">
              <InterpolatingParam id="222" interp="linr"  time="-9999999/1" value="0" leadInLength="0/1"  />
              <InterpolatingParam id="223" interp="linr"  time="-9999999/1" value="0" leadInLength="0/1"  />
              <InterpolatingParam id="224" interp="linr"  time="-9999999/1" value="0" leadInLength="0/1"  />
             </VectorParam>
             <VectorParam id="225"  name="rotation">
              <InterpolatingParam id="226" interp="linr"  time="-9999999/1" value="0" leadInLength="0/1"  />
              <InterpolatingParam id="227" interp="linr"  time="-9999999/1" value="0" leadInLength="0/1"  />
              <InterpolatingParam id="228" interp="linr"  time="-9999999/1" value="0" leadInLength="0/1"  />
             </VectorParam>
             <VectorParam id="229"  name="shear">
              <InterpolatingParam id="230" interp="linr"  time="-9999999/1" value="0" leadInLength="0/1"  />
              <InterpolatingParam id="231" interp="linr"  time="-9999999/1" value="0" leadInLength="0/1"  />
              <InterpolatingParam id="232" interp="linr"  time="-9999999/1" value="0" leadInLength="0/1"  />
             </VectorParam>
             <VectorParam id="233"  name="scale">
              <InterpolatingParam id="234" interp="linr"  time="-9999999/1" value="1" leadInLength="0/1"  />
              <InterpolatingParam id="235" interp="linr"  time="-9999999/1" value="1" leadInLength="0/1"  />
              <InterpolatingParam id="236" interp="linr"  time="-9999999/1" value="1" leadInLength="0/1"  />
             </VectorParam>
             <VectorParam id="237"  name="anchor">
              <InterpolatingParam id="238" interp="linr"  time="0/1" value="0" leadInLength="0/1"  />
              <InterpolatingParam id="239" interp="linr"  time="0/1" value="0" leadInLength="0/1"  />
              <InterpolatingParam id="240" interp="linr"  time="0/1" value="0" leadInLength="0/1"  />
             </VectorParam>
            </Transformer>
            <Parameters>
             <VectorParam id="241"  name="sourceCrop">
              <InterpolatingParam id="242" interp="linr"  time="0/1" value="0" leadInLength="0/1"  />
              <InterpolatingParam id="243" interp="linr"  time="0/1" value="0" leadInLength="0/1"  />
              <InterpolatingParam id="244" interp="linr"  time="0/1" value="0" leadInLength="0/1"  />
              <InterpolatingParam id="245" interp="linr"  time="0/1" value="0" leadInLength="0/1"  />
             </VectorParam>
             <VectorParam id="246"  name="geometryCrop">
              <InterpolatingParam id="247" interp="linr"  time="-9999999/1" value="0" leadInLength="0/1"  />
              <InterpolatingParam id="248" interp="linr"  time="-9999999/1" value="0" leadInLength="0/1"  />
              <InterpolatingParam id="249" interp="linr"  time="-9999999/1" value="0" leadInLength="0/1"  />
              <InterpolatingParam id="250" interp="linr"  time="-9999999/1" value="0" leadInLength="0/1"  />
             </VectorParam>
             <InterpolatingParam id="251" interp="linr"  time="-9999999/1" value="1" leadInLength="0/1"  name="opacity"/>
             <InterpolatingParam id="252" interp="linr"  time="0/1" value="0" leadInLength="0/1"  name="cursorOpacity"/>
             <InterpolatingParam id="253" interp="linr"  time="0/1" value="0" leadInLength="0/1"  name="cursorScale"/>
            </Parameters>
            <Attributes>
             <Attribute id="254" value="" name="ident"/>
            </Attributes>
            <MetaData>
             <entry key="AutoAppliedSmartFocus" val="False"/>
             <entry key="WinSubProjectDisplayName" val=""/>
            </MetaData>
            <ExtraData>
             <Entry key="ZoomPanBin">
              <ZoomPanBin id="255"  >
               <ZoomPanKeyframes>
                <ZoomPanKeyframe id="256" timeRangeEnd="-9999999/1" timeRangeDuration="0/1" interpolaterName=""  />
               </ZoomPanKeyframes>
              </ZoomPanBin>
             </Entry>
             <Entry key="CursorEffectBin">
              <CursorEffectBin id="257"  >
               <CursorEffectKeyframes>
               </CursorEffectKeyframes>
              </CursorEffectBin>
             </Entry>
            </ExtraData>
           </ScreenVMFile>
           <ScreenVMFile id="258" start="716" duration="1" scalar="1/1" mediaStart="1462/1" mediaDuration="1/1" trackNumber="0" src="4" >
            <Transformer>
             <VectorParam id="259"  name="translation">
              <InterpolatingParam id="260" interp="linr"  time="-9999999/1" value="0" leadInLength="0/1"  />
              <InterpolatingParam id="261" interp="linr"  time="-9999999/1" value="0" leadInLength="0/1"  />
              <InterpolatingParam id="262" interp="linr"  time="-9999999/1" value="0" leadInLength="0/1"  />
             </VectorParam>
             <VectorParam id="263"  name="rotation">
              <InterpolatingParam id="264" interp="linr"  time="-9999999/1" value="0" leadInLength="0/1"  />
              <InterpolatingParam id="265" interp="linr"  time="-9999999/1" value="0" leadInLength="0/1"  />
              <InterpolatingParam id="266" interp="linr"  time="-9999999/1" value="0" leadInLength="0/1"  />
             </VectorParam>
             <VectorParam id="267"  name="shear">
              <InterpolatingParam id="268" interp="linr"  time="-9999999/1" value="0" leadInLength="0/1"  />
              <InterpolatingParam id="269" interp="linr"  time="-9999999/1" value="0" leadInLength="0/1"  />
              <InterpolatingParam id="270" interp="linr"  time="-9999999/1" value="0" leadInLength="0/1"  />
             </VectorParam>
             <VectorParam id="271"  name="scale">
              <InterpolatingParam id="272" interp="linr"  time="-9999999/1" value="1" leadInLength="0/1"  />
              <InterpolatingParam id="273" interp="linr"  time="-9999999/1" value="1" leadInLength="0/1"  />
              <InterpolatingParam id="274" interp="linr"  time="-9999999/1" value="1" leadInLength="0/1"  />
             </VectorParam>
             <VectorParam id="275"  name="anchor">
              <InterpolatingParam id="276" interp="linr"  time="0/1" value="0" leadInLength="0/1"  />
              <InterpolatingParam id="277" interp="linr"  time="0/1" value="0" leadInLength="0/1"  />
              <InterpolatingParam id="278" interp="linr"  time="0/1" value="0" leadInLength="0/1"  />
             </VectorParam>
            </Transformer>
            <Parameters>
             <VectorParam id="279"  name="sourceCrop">
              <InterpolatingParam id="280" interp="linr"  time="0/1" value="0" leadInLength="0/1"  />
              <InterpolatingParam id="281" interp="linr"  time="0/1" value="0" leadInLength="0/1"  />
              <InterpolatingParam id="282" interp="linr"  time="0/1" value="0" leadInLength="0/1"  />
              <InterpolatingParam id="283" interp="linr"  time="0/1" value="0" leadInLength="0/1"  />
             </VectorParam>
             <VectorParam id="284"  name="geometryCrop">
              <InterpolatingParam id="285" interp="linr"  time="-9999999/1" value="0" leadInLength="0/1"  />
              <InterpolatingParam id="286" interp="linr"  time="-9999999/1" value="0" leadInLength="0/1"  />
              <InterpolatingParam id="287" interp="linr"  time="-9999999/1" value="0" leadInLength="0/1"  />
              <InterpolatingParam id="288" interp="linr"  time="-9999999/1" value="0" leadInLength="0/1"  />
             </VectorParam>
             <InterpolatingParam id="289" interp="linr"  time="-9999999/1" value="1" leadInLength="0/1"  name="opacity"/>
             <InterpolatingParam id="290" interp="linr"  time="0/1" value="0" leadInLength="0/1"  name="cursorOpacity"/>
             <InterpolatingParam id="291" interp="linr"  time="0/1" value="0" leadInLength="0/1"  name="cursorScale"/>
            </Parameters>
            <Attributes>
             <Attribute id="292" value="" name="ident"/>
            </Attributes>
            <MetaData>
             <entry key="AutoAppliedSmartFocus" val="False"/>
             <entry key="WinSubProjectDisplayName" val=""/>
            </MetaData>
            <ExtraData>
             <Entry key="ZoomPanBin">
              <ZoomPanBin id="293"  >
               <ZoomPanKeyframes>
                <ZoomPanKeyframe id="294" timeRangeEnd="-9999999/1" timeRangeDuration="0/1" interpolaterName=""  />
               </ZoomPanKeyframes>
              </ZoomPanBin>
             </Entry>
             <Entry key="CursorEffectBin">
              <CursorEffectBin id="295"  >
               <CursorEffectKeyframes>
               </CursorEffectKeyframes>
              </CursorEffectBin>
             </Entry>
            </ExtraData>
           </ScreenVMFile>
           <ScreenVMFile id="296" start="717" duration="189" scalar="1/1" mediaStart="4197/1" mediaDuration="189/1" trackNumber="0" src="4" >
            <Transformer>
             <VectorParam id="297"  name="translation">
              <InterpolatingParam id="298" interp="linr"  time="-9999999/1" value="0" leadInLength="0/1"  />
              <InterpolatingParam id="299" interp="linr"  time="-9999999/1" value="0" leadInLength="0/1"  />
              <InterpolatingParam id="300" interp="linr"  time="-9999999/1" value="0" leadInLength="0/1"  />
             </VectorParam>
             <VectorParam id="301"  name="rotation">
              <InterpolatingParam id="302" interp="linr"  time="-9999999/1" value="0" leadInLength="0/1"  />
              <InterpolatingParam id="303" interp="linr"  time="-9999999/1" value="0" leadInLength="0/1"  />
              <InterpolatingParam id="304" interp="linr"  time="-9999999/1" value="0" leadInLength="0/1"  />
             </VectorParam>
             <VectorParam id="305"  name="shear">
              <InterpolatingParam id="306" interp="linr"  time="-9999999/1" value="0" leadInLength="0/1"  />
              <InterpolatingParam id="307" interp="linr"  time="-9999999/1" value="0" leadInLength="0/1"  />
              <InterpolatingParam id="308" interp="linr"  time="-9999999/1" value="0" leadInLength="0/1"  />
             </VectorParam>
             <VectorParam id="309"  name="scale">
              <InterpolatingParam id="310" interp="linr"  time="-9999999/1" value="1" leadInLength="0/1"  />
              <InterpolatingParam id="311" interp="linr"  time="-9999999/1" value="1" leadInLength="0/1"  />
              <InterpolatingParam id="312" interp="linr"  time="-9999999/1" value="1" leadInLength="0/1"  />
             </VectorParam>
             <VectorParam id="313"  name="anchor">
              <InterpolatingParam id="314" interp="linr"  time="0/1" value="0" leadInLength="0/1"  />
              <InterpolatingParam id="315" interp="linr"  time="0/1" value="0" leadInLength="0/1"  />
              <InterpolatingParam id="316" interp="linr"  time="0/1" value="0" leadInLength="0/1"  />
             </VectorParam>
            </Transformer>
            <Parameters>
             <VectorParam id="317"  name="sourceCrop">
              <InterpolatingParam id="318" interp="linr"  time="0/1" value="0" leadInLength="0/1"  />
              <InterpolatingParam id="319" interp="linr"  time="0/1" value="0" leadInLength="0/1"  />
              <InterpolatingParam id="320" interp="linr"  time="0/1" value="0" leadInLength="0/1"  />
              <InterpolatingParam id="321" interp="linr"  time="0/1" value="0" leadInLength="0/1"  />
             </VectorParam>
             <VectorParam id="322"  name="geometryCrop">
              <InterpolatingParam id="323" interp="linr"  time="-9999999/1" value="0" leadInLength="0/1"  />
              <InterpolatingParam id="324" interp="linr"  time="-9999999/1" value="0" leadInLength="0/1"  />
              <InterpolatingParam id="325" interp="linr"  time="-9999999/1" value="0" leadInLength="0/1"  />
              <InterpolatingParam id="326" interp="linr"  time="-9999999/1" value="0" leadInLength="0/1"  />
             </VectorParam>
             <InterpolatingParam id="327" interp="linr"  time="-9999999/1" value="1" leadInLength="0/1"  name="opacity"/>
             <InterpolatingParam id="328" interp="linr"  time="0/1" value="0" leadInLength="0/1"  name="cursorOpacity"/>
             <InterpolatingParam id="329" interp="linr"  time="0/1" value="0" leadInLength="0/1"  name="cursorScale"/>
            </Parameters>
            <Attributes>
             <Attribute id="330" value="" name="ident"/>
            </Attributes>
            <MetaData>
             <entry key="AutoAppliedSmartFocus" val="False"/>
             <entry key="WinSubProjectDisplayName" val=""/>
            </MetaData>
            <ExtraData>
             <Entry key="ZoomPanBin">
              <ZoomPanBin id="331"  >
               <ZoomPanKeyframes>
                <ZoomPanKeyframe id="332" timeRangeEnd="-9999999/1" timeRangeDuration="0/1" interpolaterName=""  />
               </ZoomPanKeyframes>
              </ZoomPanBin>
             </Entry>
             <Entry key="CursorEffectBin">
              <CursorEffectBin id="333"  >
               <CursorEffectKeyframes>
               </CursorEffectKeyframes>
              </CursorEffectBin>
             </Entry>
            </ExtraData>
           </ScreenVMFile>
           <ScreenVMFile id="334" start="906" duration="115" scalar="1/1" mediaStart="4505/1" mediaDuration="115/1" trackNumber="0" src="4" >
            <Transformer>
             <VectorParam id="335"  name="translation">
              <InterpolatingParam id="336" interp="linr"  time="-9999999/1" value="0" leadInLength="0/1"  />
              <InterpolatingParam id="337" interp="linr"  time="-9999999/1" value="0" leadInLength="0/1"  />
              <InterpolatingParam id="338" interp="linr"  time="-9999999/1" value="0" leadInLength="0/1"  />
             </VectorParam>
             <VectorParam id="339"  name="rotation">
              <InterpolatingParam id="340" interp="linr"  time="-9999999/1" value="0" leadInLength="0/1"  />
              <InterpolatingParam id="341" interp="linr"  time="-9999999/1" value="0" leadInLength="0/1"  />
              <InterpolatingParam id="342" interp="linr"  time="-9999999/1" value="0" leadInLength="0/1"  />
             </VectorParam>
             <VectorParam id="343"  name="shear">
              <InterpolatingParam id="344" interp="linr"  time="-9999999/1" value="0" leadInLength="0/1"  />
              <InterpolatingParam id="345" interp="linr"  time="-9999999/1" value="0" leadInLength="0/1"  />
              <InterpolatingParam id="346" interp="linr"  time="-9999999/1" value="0" leadInLength="0/1"  />
             </VectorParam>
             <VectorParam id="347"  name="scale">
              <InterpolatingParam id="348" interp="linr"  time="-9999999/1" value="1" leadInLength="0/1"  />
              <InterpolatingParam id="349" interp="linr"  time="-9999999/1" value="1" leadInLength="0/1"  />
              <InterpolatingParam id="350" interp="linr"  time="-9999999/1" value="1" leadInLength="0/1"  />
             </VectorParam>
             <VectorParam id="351"  name="anchor">
              <InterpolatingParam id="352" interp="linr"  time="0/1" value="0" leadInLength="0/1"  />
              <InterpolatingParam id="353" interp="linr"  time="0/1" value="0" leadInLength="0/1"  />
              <InterpolatingParam id="354" interp="linr"  time="0/1" value="0" leadInLength="0/1"  />
             </VectorParam>
            </Transformer>
            <Parameters>
             <VectorParam id="355"  name="sourceCrop">
              <InterpolatingParam id="356" interp="linr"  time="0/1" value="0" leadInLength="0/1"  />
              <InterpolatingParam id="357" interp="linr"  time="0/1" value="0" leadInLength="0/1"  />
              <InterpolatingParam id="358" interp="linr"  time="0/1" value="0" leadInLength="0/1"  />
              <InterpolatingParam id="359" interp="linr"  time="0/1" value="0" leadInLength="0/1"  />
             </VectorParam>
             <VectorParam id="360"  name="geometryCrop">
              <InterpolatingParam id="361" interp="linr"  time="-9999999/1" value="0" leadInLength="0/1"  />
              <InterpolatingParam id="362" interp="linr"  time="-9999999/1" value="0" leadInLength="0/1"  />
              <InterpolatingParam id="363" interp="linr"  time="-9999999/1" value="0" leadInLength="0/1"  />
              <InterpolatingParam id="364" interp="linr"  time="-9999999/1" value="0" leadInLength="0/1"  />
             </VectorParam>
             <InterpolatingParam id="365" interp="linr"  time="-9999999/1" value="1" leadInLength="0/1"  name="opacity"/>
             <InterpolatingParam id="366" interp="linr"  time="0/1" value="0" leadInLength="0/1"  name="cursorOpacity"/>
             <InterpolatingParam id="367" interp="linr"  time="0/1" value="0" leadInLength="0/1"  name="cursorScale"/>
            </Parameters>
            <Attributes>
             <Attribute id="368" value="" name="ident"/>
            </Attributes>
            <MetaData>
             <entry key="AutoAppliedSmartFocus" val="False"/>
             <entry key="WinSubProjectDisplayName" val=""/>
            </MetaData>
            <ExtraData>
             <Entry key="ZoomPanBin">
              <ZoomPanBin id="369"  >
               <ZoomPanKeyframes>
                <ZoomPanKeyframe id="370" timeRangeEnd="-9999999/1" timeRangeDuration="0/1" interpolaterName=""  />
               </ZoomPanKeyframes>
              </ZoomPanBin>
             </Entry>
             <Entry key="CursorEffectBin">
              <CursorEffectBin id="371"  >
               <CursorEffectKeyframes>
               </CursorEffectKeyframes>
              </CursorEffectBin>
             </Entry>
            </ExtraData>
           </ScreenVMFile>
           <ScreenVMFile id="372" start="1021" duration="170" scalar="1/1" mediaStart="4703/1" mediaDuration="170/1" trackNumber="0" src="4" >
            <Transformer>
             <VectorParam id="373"  name="translation">
              <InterpolatingParam id="374" interp="linr"  time="-9999999/1" value="0" leadInLength="0/1"  />
              <InterpolatingParam id="375" interp="linr"  time="-9999999/1" value="0" leadInLength="0/1"  />
              <InterpolatingParam id="376" interp="linr"  time="-9999999/1" value="0" leadInLength="0/1"  />
             </VectorParam>
             <VectorParam id="377"  name="rotation">
              <InterpolatingParam id="378" interp="linr"  time="-9999999/1" value="0" leadInLength="0/1"  />
              <InterpolatingParam id="379" interp="linr"  time="-9999999/1" value="0" leadInLength="0/1"  />
              <InterpolatingParam id="380" interp="linr"  time="-9999999/1" value="0" leadInLength="0/1"  />
             </VectorParam>
             <VectorParam id="381"  name="shear">
              <InterpolatingParam id="382" interp="linr"  time="-9999999/1" value="0" leadInLength="0/1"  />
              <InterpolatingParam id="383" interp="linr"  time="-9999999/1" value="0" leadInLength="0/1"  />
              <InterpolatingParam id="384" interp="linr"  time="-9999999/1" value="0" leadInLength="0/1"  />
             </VectorParam>
             <VectorParam id="385"  name="scale">
              <InterpolatingParam id="386" interp="linr"  time="-9999999/1" value="1" leadInLength="0/1"  />
              <InterpolatingParam id="387" interp="linr"  time="-9999999/1" value="1" leadInLength="0/1"  />
              <InterpolatingParam id="388" interp="linr"  time="-9999999/1" value="1" leadInLength="0/1"  />
             </VectorParam>
             <VectorParam id="389"  name="anchor">
              <InterpolatingParam id="390" interp="linr"  time="0/1" value="0" leadInLength="0/1"  />
              <InterpolatingParam id="391" interp="linr"  time="0/1" value="0" leadInLength="0/1"  />
              <InterpolatingParam id="392" interp="linr"  time="0/1" value="0" leadInLength="0/1"  />
             </VectorParam>
            </Transformer>
            <Parameters>
             <VectorParam id="393"  name="sourceCrop">
              <InterpolatingParam id="394" interp="linr"  time="0/1" value="0" leadInLength="0/1"  />
              <InterpolatingParam id="395" interp="linr"  time="0/1" value="0" leadInLength="0/1"  />
              <InterpolatingParam id="396" interp="linr"  time="0/1" value="0" leadInLength="0/1"  />
              <InterpolatingParam id="397" interp="linr"  time="0/1" value="0" leadInLength="0/1"  />
             </VectorParam>
             <VectorParam id="398"  name="geometryCrop">
              <InterpolatingParam id="399" interp="linr"  time="-9999999/1" value="0" leadInLength="0/1"  />
              <InterpolatingParam id="400" interp="linr"  time="-9999999/1" value="0" leadInLength="0/1"  />
              <InterpolatingParam id="401" interp="linr"  time="-9999999/1" value="0" leadInLength="0/1"  />
              <InterpolatingParam id="402" interp="linr"  time="-9999999/1" value="0" leadInLength="0/1"  />
             </VectorParam>
             <InterpolatingParam id="403" interp="linr"  time="-9999999/1" value="1" leadInLength="0/1"  name="opacity"/>
             <InterpolatingParam id="404" interp="linr"  time="0/1" value="0" leadInLength="0/1"  name="cursorOpacity"/>
             <InterpolatingParam id="405" interp="linr"  time="0/1" value="0" leadInLength="0/1"  name="cursorScale"/>
            </Parameters>
            <Attributes>
             <Attribute id="406" value="" name="ident"/>
            </Attributes>
            <MetaData>
             <entry key="AutoAppliedSmartFocus" val="False"/>
             <entry key="WinSubProjectDisplayName" val=""/>
            </MetaData>
            <ExtraData>
             <Entry key="ZoomPanBin">
              <ZoomPanBin id="407"  >
               <ZoomPanKeyframes>
                <ZoomPanKeyframe id="408" timeRangeEnd="-9999999/1" timeRangeDuration="0/1" interpolaterName=""  />
               </ZoomPanKeyframes>
              </ZoomPanBin>
             </Entry>
             <Entry key="CursorEffectBin">
              <CursorEffectBin id="409"  >
               <CursorEffectKeyframes>
               </CursorEffectKeyframes>
              </CursorEffectBin>
             </Entry>
            </ExtraData>
           </ScreenVMFile>
           <ScreenVMFile id="410" start="1191" duration="25" scalar="1/1" mediaStart="4901/1" mediaDuration="25/1" trackNumber="0" src="4" >
            <Transformer>
             <VectorParam id="411"  name="translation">
              <InterpolatingParam id="412" interp="linr"  time="-9999999/1" value="0" leadInLength="0/1"  />
              <InterpolatingParam id="413" interp="linr"  time="-9999999/1" value="0" leadInLength="0/1"  />
              <InterpolatingParam id="414" interp="linr"  time="-9999999/1" value="0" leadInLength="0/1"  />
             </VectorParam>
             <VectorParam id="415"  name="rotation">
              <InterpolatingParam id="416" interp="linr"  time="-9999999/1" value="0" leadInLength="0/1"  />
              <InterpolatingParam id="417" interp="linr"  time="-9999999/1" value="0" leadInLength="0/1"  />
              <InterpolatingParam id="418" interp="linr"  time="-9999999/1" value="0" leadInLength="0/1"  />
             </VectorParam>
             <VectorParam id="419"  name="shear">
              <InterpolatingParam id="420" interp="linr"  time="-9999999/1" value="0" leadInLength="0/1"  />
              <InterpolatingParam id="421" interp="linr"  time="-9999999/1" value="0" leadInLength="0/1"  />
              <InterpolatingParam id="422" interp="linr"  time="-9999999/1" value="0" leadInLength="0/1"  />
             </VectorParam>
             <VectorParam id="423"  name="scale">
              <InterpolatingParam id="424" interp="linr"  time="-9999999/1" value="1" leadInLength="0/1"  />
              <InterpolatingParam id="425" interp="linr"  time="-9999999/1" value="1" leadInLength="0/1"  />
              <InterpolatingParam id="426" interp="linr"  time="-9999999/1" value="1" leadInLength="0/1"  />
             </VectorParam>
             <VectorParam id="427"  name="anchor">
              <InterpolatingParam id="428" interp="linr"  time="0/1" value="0" leadInLength="0/1"  />
              <InterpolatingParam id="429" interp="linr"  time="0/1" value="0" leadInLength="0/1"  />
              <InterpolatingParam id="430" interp="linr"  time="0/1" value="0" leadInLength="0/1"  />
             </VectorParam>
            </Transformer>
            <Parameters>
             <VectorParam id="431"  name="sourceCrop">
              <InterpolatingParam id="432" interp="linr"  time="0/1" value="0" leadInLength="0/1"  />
              <InterpolatingParam id="433" interp="linr"  time="0/1" value="0" leadInLength="0/1"  />
              <InterpolatingParam id="434" interp="linr"  time="0/1" value="0" leadInLength="0/1"  />
              <InterpolatingParam id="435" interp="linr"  time="0/1" value="0" leadInLength="0/1"  />
             </VectorParam>
             <VectorParam id="436"  name="geometryCrop">
              <InterpolatingParam id="437" interp="linr"  time="-9999999/1" value="0" leadInLength="0/1"  />
              <InterpolatingParam id="438" interp="linr"  time="-9999999/1" value="0" leadInLength="0/1"  />
              <InterpolatingParam id="439" interp="linr"  time="-9999999/1" value="0" leadInLength="0/1"  />
              <InterpolatingParam id="440" interp="linr"  time="-9999999/1" value="0" leadInLength="0/1"  />
             </VectorParam>
             <InterpolatingParam id="441" interp="linr"  time="-9999999/1" value="1" leadInLength="0/1"  name="opacity"/>
             <InterpolatingParam id="442" interp="linr"  time="0/1" value="0" leadInLength="0/1"  name="cursorOpacity"/>
             <InterpolatingParam id="443" interp="linr"  time="0/1" value="0" leadInLength="0/1"  name="cursorScale"/>
            </Parameters>
            <Attributes>
             <Attribute id="444" value="" name="ident"/>
            </Attributes>
            <MetaData>
             <entry key="AutoAppliedSmartFocus" val="False"/>
             <entry key="WinSubProjectDisplayName" val=""/>
            </MetaData>
            <ExtraData>
             <Entry key="ZoomPanBin">
              <ZoomPanBin id="445"  >
               <ZoomPanKeyframes>
                <ZoomPanKeyframe id="446" timeRangeEnd="-9999999/1" timeRangeDuration="0/1" interpolaterName=""  />
               </ZoomPanKeyframes>
              </ZoomPanBin>
             </Entry>
             <Entry key="CursorEffectBin">
              <CursorEffectBin id="447"  >
               <CursorEffectKeyframes>
               </CursorEffectKeyframes>
              </CursorEffectBin>
             </Entry>
            </ExtraData>
           </ScreenVMFile>
           <ScreenVMFile id="448" start="1216" duration="695" scalar="1/1" mediaStart="5004/1" mediaDuration="695/1" trackNumber="0" src="4" >
            <Transformer>
             <VectorParam id="449"  name="translation">
              <InterpolatingParam id="450" interp="linr"  time="-9999999/1" value="0" leadInLength="0/1"  />
              <InterpolatingParam id="451" interp="linr"  time="-9999999/1" value="0" leadInLength="0/1"  />
              <InterpolatingParam id="452" interp="linr"  time="-9999999/1" value="0" leadInLength="0/1"  />
             </VectorParam>
             <VectorParam id="453"  name="rotation">
              <InterpolatingParam id="454" interp="linr"  time="-9999999/1" value="0" leadInLength="0/1"  />
              <InterpolatingParam id="455" interp="linr"  time="-9999999/1" value="0" leadInLength="0/1"  />
              <InterpolatingParam id="456" interp="linr"  time="-9999999/1" value="0" leadInLength="0/1"  />
             </VectorParam>
             <VectorParam id="457"  name="shear">
              <InterpolatingParam id="458" interp="linr"  time="-9999999/1" value="0" leadInLength="0/1"  />
              <InterpolatingParam id="459" interp="linr"  time="-9999999/1" value="0" leadInLength="0/1"  />
              <InterpolatingParam id="460" interp="linr"  time="-9999999/1" value="0" leadInLength="0/1"  />
             </VectorParam>
             <VectorParam id="461"  name="scale">
              <InterpolatingParam id="462" interp="linr"  time="-9999999/1" value="1" leadInLength="0/1"  />
              <InterpolatingParam id="463" interp="linr"  time="-9999999/1" value="1" leadInLength="0/1"  />
              <InterpolatingParam id="464" interp="linr"  time="-9999999/1" value="1" leadInLength="0/1"  />
             </VectorParam>
             <VectorParam id="465"  name="anchor">
              <InterpolatingParam id="466" interp="linr"  time="0/1" value="0" leadInLength="0/1"  />
              <InterpolatingParam id="467" interp="linr"  time="0/1" value="0" leadInLength="0/1"  />
              <InterpolatingParam id="468" interp="linr"  time="0/1" value="0" leadInLength="0/1"  />
             </VectorParam>
            </Transformer>
            <Parameters>
             <VectorParam id="469"  name="sourceCrop">
              <InterpolatingParam id="470" interp="linr"  time="0/1" value="0" leadInLength="0/1"  />
              <InterpolatingParam id="471" interp="linr"  time="0/1" value="0" leadInLength="0/1"  />
              <InterpolatingParam id="472" interp="linr"  time="0/1" value="0" leadInLength="0/1"  />
              <InterpolatingParam id="473" interp="linr"  time="0/1" value="0" leadInLength="0/1"  />
             </VectorParam>
             <VectorParam id="474"  name="geometryCrop">
              <InterpolatingParam id="475" interp="linr"  time="-9999999/1" value="0" leadInLength="0/1"  />
              <InterpolatingParam id="476" interp="linr"  time="-9999999/1" value="0" leadInLength="0/1"  />
              <InterpolatingParam id="477" interp="linr"  time="-9999999/1" value="0" leadInLength="0/1"  />
              <InterpolatingParam id="478" interp="linr"  time="-9999999/1" value="0" leadInLength="0/1"  />
             </VectorParam>
             <InterpolatingParam id="479" interp="linr"  time="-9999999/1" value="1" leadInLength="0/1"  name="opacity"/>
             <InterpolatingParam id="480" interp="linr"  time="0/1" value="0" leadInLength="0/1"  name="cursorOpacity"/>
             <InterpolatingParam id="481" interp="linr"  time="0/1" value="0" leadInLength="0/1"  name="cursorScale"/>
            </Parameters>
            <Attributes>
             <Attribute id="482" value="" name="ident"/>
            </Attributes>
            <MetaData>
             <entry key="AutoAppliedSmartFocus" val="False"/>
             <entry key="WinSubProjectDisplayName" val=""/>
            </MetaData>
            <ExtraData>
             <Entry key="ZoomPanBin">
              <ZoomPanBin id="483"  >
               <ZoomPanKeyframes>
                <ZoomPanKeyframe id="484" timeRangeEnd="-9999999/1" timeRangeDuration="0/1" interpolaterName=""  />
               </ZoomPanKeyframes>
              </ZoomPanBin>
             </Entry>
             <Entry key="CursorEffectBin">
              <CursorEffectBin id="485"  >
               <CursorEffectKeyframes>
               </CursorEffectKeyframes>
              </CursorEffectBin>
             </Entry>
            </ExtraData>
           </ScreenVMFile>
           <ScreenVMFile id="486" start="1911" duration="323" scalar="1/1" mediaStart="6112/1" mediaDuration="323/1" trackNumber="0" src="4" >
            <Transformer>
             <VectorParam id="487"  name="translation">
              <InterpolatingParam id="488" interp="linr"  time="-9999999/1" value="0" leadInLength="0/1"  />
              <InterpolatingParam id="489" interp="linr"  time="-9999999/1" value="0" leadInLength="0/1"  />
              <InterpolatingParam id="490" interp="linr"  time="-9999999/1" value="0" leadInLength="0/1"  />
             </VectorParam>
             <VectorParam id="491"  name="rotation">
              <InterpolatingParam id="492" interp="linr"  time="-9999999/1" value="0" leadInLength="0/1"  />
              <InterpolatingParam id="493" interp="linr"  time="-9999999/1" value="0" leadInLength="0/1"  />
              <InterpolatingParam id="494" interp="linr"  time="-9999999/1" value="0" leadInLength="0/1"  />
             </VectorParam>
             <VectorParam id="495"  name="shear">
              <InterpolatingParam id="496" interp="linr"  time="-9999999/1" value="0" leadInLength="0/1"  />
              <InterpolatingParam id="497" interp="linr"  time="-9999999/1" value="0" leadInLength="0/1"  />
              <InterpolatingParam id="498" interp="linr"  time="-9999999/1" value="0" leadInLength="0/1"  />
             </VectorParam>
             <VectorParam id="499"  name="scale">
              <InterpolatingParam id="500" interp="linr"  time="-9999999/1" value="1" leadInLength="0/1"  />
              <InterpolatingParam id="501" interp="linr"  time="-9999999/1" value="1" leadInLength="0/1"  />
              <InterpolatingParam id="502" interp="linr"  time="-9999999/1" value="1" leadInLength="0/1"  />
             </VectorParam>
             <VectorParam id="503"  name="anchor">
              <InterpolatingParam id="504" interp="linr"  time="0/1" value="0" leadInLength="0/1"  />
              <InterpolatingParam id="505" interp="linr"  time="0/1" value="0" leadInLength="0/1"  />
              <InterpolatingParam id="506" interp="linr"  time="0/1" value="0" leadInLength="0/1"  />
             </VectorParam>
            </Transformer>
            <Parameters>
             <VectorParam id="507"  name="sourceCrop">
              <InterpolatingParam id="508" interp="linr"  time="0/1" value="0" leadInLength="0/1"  />
              <InterpolatingParam id="509" interp="linr"  time="0/1" value="0" leadInLength="0/1"  />
              <InterpolatingParam id="510" interp="linr"  time="0/1" value="0" leadInLength="0/1"  />
              <InterpolatingParam id="511" interp="linr"  time="0/1" value="0" leadInLength="0/1"  />
             </VectorParam>
             <VectorParam id="512"  name="geometryCrop">
              <InterpolatingParam id="513" interp="linr"  time="-9999999/1" value="0" leadInLength="0/1"  />
              <InterpolatingParam id="514" interp="linr"  time="-9999999/1" value="0" leadInLength="0/1"  />
              <InterpolatingParam id="515" interp="linr"  time="-9999999/1" value="0" leadInLength="0/1"  />
              <InterpolatingParam id="516" interp="linr"  time="-9999999/1" value="0" leadInLength="0/1"  />
             </VectorParam>
             <InterpolatingParam id="517" interp="linr"  time="-9999999/1" value="1" leadInLength="0/1"  name="opacity"/>
             <InterpolatingParam id="518" interp="linr"  time="0/1" value="0" leadInLength="0/1"  name="cursorOpacity"/>
             <InterpolatingParam id="519" interp="linr"  time="0/1" value="0" leadInLength="0/1"  name="cursorScale"/>
            </Parameters>
            <Attributes>
             <Attribute id="520" value="" name="ident"/>
            </Attributes>
            <MetaData>
             <entry key="AutoAppliedSmartFocus" val="False"/>
             <entry key="WinSubProjectDisplayName" val=""/>
            </MetaData>
            <ExtraData>
             <Entry key="ZoomPanBin">
              <ZoomPanBin id="521"  >
               <ZoomPanKeyframes>
                <ZoomPanKeyframe id="522" timeRangeEnd="-9999999/1" timeRangeDuration="0/1" interpolaterName=""  />
               </ZoomPanKeyframes>
              </ZoomPanBin>
             </Entry>
             <Entry key="CursorEffectBin">
              <CursorEffectBin id="523"  >
               <CursorEffectKeyframes>
               </CursorEffectKeyframes>
              </CursorEffectBin>
             </Entry>
            </ExtraData>
           </ScreenVMFile>
           <ScreenVMFile id="524" start="2234" duration="4" scalar="1/1" mediaStart="6443/1" mediaDuration="4/1" trackNumber="0" src="4" >
            <Transformer>
             <VectorParam id="525"  name="translation">
              <InterpolatingParam id="526" interp="linr"  time="-9999999/1" value="0" leadInLength="0/1"  />
              <InterpolatingParam id="527" interp="linr"  time="-9999999/1" value="0" leadInLength="0/1"  />
              <InterpolatingParam id="528" interp="linr"  time="-9999999/1" value="0" leadInLength="0/1"  />
             </VectorParam>
             <VectorParam id="529"  name="rotation">
              <InterpolatingParam id="530" interp="linr"  time="-9999999/1" value="0" leadInLength="0/1"  />
              <InterpolatingParam id="531" interp="linr"  time="-9999999/1" value="0" leadInLength="0/1"  />
              <InterpolatingParam id="532" interp="linr"  time="-9999999/1" value="0" leadInLength="0/1"  />
             </VectorParam>
             <VectorParam id="533"  name="shear">
              <InterpolatingParam id="534" interp="linr"  time="-9999999/1" value="0" leadInLength="0/1"  />
              <InterpolatingParam id="535" interp="linr"  time="-9999999/1" value="0" leadInLength="0/1"  />
              <InterpolatingParam id="536" interp="linr"  time="-9999999/1" value="0" leadInLength="0/1"  />
             </VectorParam>
             <VectorParam id="537"  name="scale">
              <InterpolatingParam id="538" interp="linr"  time="-9999999/1" value="1" leadInLength="0/1"  />
              <InterpolatingParam id="539" interp="linr"  time="-9999999/1" value="1" leadInLength="0/1"  />
              <InterpolatingParam id="540" interp="linr"  time="-9999999/1" value="1" leadInLength="0/1"  />
             </VectorParam>
             <VectorParam id="541"  name="anchor">
              <InterpolatingParam id="542" interp="linr"  time="0/1" value="0" leadInLength="0/1"  />
              <InterpolatingParam id="543" interp="linr"  time="0/1" value="0" leadInLength="0/1"  />
              <InterpolatingParam id="544" interp="linr"  time="0/1" value="0" leadInLength="0/1"  />
             </VectorParam>
            </Transformer>
            <Parameters>
             <VectorParam id="545"  name="sourceCrop">
              <InterpolatingParam id="546" interp="linr"  time="0/1" value="0" leadInLength="0/1"  />
              <InterpolatingParam id="547" interp="linr"  time="0/1" value="0" leadInLength="0/1"  />
              <InterpolatingParam id="548" interp="linr"  time="0/1" value="0" leadInLength="0/1"  />
              <InterpolatingParam id="549" interp="linr"  time="0/1" value="0" leadInLength="0/1"  />
             </VectorParam>
             <VectorParam id="550"  name="geometryCrop">
              <InterpolatingParam id="551" interp="linr"  time="-9999999/1" value="0" leadInLength="0/1"  />
              <InterpolatingParam id="552" interp="linr"  time="-9999999/1" value="0" leadInLength="0/1"  />
              <InterpolatingParam id="553" interp="linr"  time="-9999999/1" value="0" leadInLength="0/1"  />
              <InterpolatingParam id="554" interp="linr"  time="-9999999/1" value="0" leadInLength="0/1"  />
             </VectorParam>
             <InterpolatingParam id="555" interp="linr"  time="-9999999/1" value="1" leadInLength="0/1"  name="opacity"/>
             <InterpolatingParam id="556" interp="linr"  time="0/1" value="0" leadInLength="0/1"  name="cursorOpacity"/>
             <InterpolatingParam id="557" interp="linr"  time="0/1" value="0" leadInLength="0/1"  name="cursorScale"/>
            </Parameters>
            <Attributes>
             <Attribute id="558" value="" name="ident"/>
            </Attributes>
            <MetaData>
             <entry key="AutoAppliedSmartFocus" val="False"/>
             <entry key="WinSubProjectDisplayName" val=""/>
            </MetaData>
            <ExtraData>
             <Entry key="ZoomPanBin">
              <ZoomPanBin id="559"  >
               <ZoomPanKeyframes>
                <ZoomPanKeyframe id="560" timeRangeEnd="-9999999/1" timeRangeDuration="0/1" interpolaterName=""  />
               </ZoomPanKeyframes>
              </ZoomPanBin>
             </Entry>
             <Entry key="CursorEffectBin">
              <CursorEffectBin id="561"  >
               <CursorEffectKeyframes>
               </CursorEffectKeyframes>
              </CursorEffectBin>
             </Entry>
            </ExtraData>
           </ScreenVMFile>
           <ScreenVMFile id="562" start="2238" duration="55" scalar="1/1" mediaStart="6492/1" mediaDuration="55/1" trackNumber="0" src="4" >
            <Transformer>
             <VectorParam id="563"  name="translation">
              <InterpolatingParam id="564" interp="linr"  time="-9999999/1" value="0" leadInLength="0/1"  />
              <InterpolatingParam id="565" interp="linr"  time="-9999999/1" value="0" leadInLength="0/1"  />
              <InterpolatingParam id="566" interp="linr"  time="-9999999/1" value="0" leadInLength="0/1"  />
             </VectorParam>
             <VectorParam id="567"  name="rotation">
              <InterpolatingParam id="568" interp="linr"  time="-9999999/1" value="0" leadInLength="0/1"  />
              <InterpolatingParam id="569" interp="linr"  time="-9999999/1" value="0" leadInLength="0/1"  />
              <InterpolatingParam id="570" interp="linr"  time="-9999999/1" value="0" leadInLength="0/1"  />
             </VectorParam>
             <VectorParam id="571"  name="shear">
              <InterpolatingParam id="572" interp="linr"  time="-9999999/1" value="0" leadInLength="0/1"  />
              <InterpolatingParam id="573" interp="linr"  time="-9999999/1" value="0" leadInLength="0/1"  />
              <InterpolatingParam id="574" interp="linr"  time="-9999999/1" value="0" leadInLength="0/1"  />
             </VectorParam>
             <VectorParam id="575"  name="scale">
              <InterpolatingParam id="576" interp="linr"  time="-9999999/1" value="1" leadInLength="0/1"  />
              <InterpolatingParam id="577" interp="linr"  time="-9999999/1" value="1" leadInLength="0/1"  />
              <InterpolatingParam id="578" interp="linr"  time="-9999999/1" value="1" leadInLength="0/1"  />
             </VectorParam>
             <VectorParam id="579"  name="anchor">
              <InterpolatingParam id="580" interp="linr"  time="0/1" value="0" leadInLength="0/1"  />
              <InterpolatingParam id="581" interp="linr"  time="0/1" value="0" leadInLength="0/1"  />
              <InterpolatingParam id="582" interp="linr"  time="0/1" value="0" leadInLength="0/1"  />
             </VectorParam>
            </Transformer>
            <Parameters>
             <VectorParam id="583"  name="sourceCrop">
              <InterpolatingParam id="584" interp="linr"  time="0/1" value="0" leadInLength="0/1"  />
              <InterpolatingParam id="585" interp="linr"  time="0/1" value="0" leadInLength="0/1"  />
              <InterpolatingParam id="586" interp="linr"  time="0/1" value="0" leadInLength="0/1"  />
              <InterpolatingParam id="587" interp="linr"  time="0/1" value="0" leadInLength="0/1"  />
             </VectorParam>
             <VectorParam id="588"  name="geometryCrop">
              <InterpolatingParam id="589" interp="linr"  time="-9999999/1" value="0" leadInLength="0/1"  />
              <InterpolatingParam id="590" interp="linr"  time="-9999999/1" value="0" leadInLength="0/1"  />
              <InterpolatingParam id="591" interp="linr"  time="-9999999/1" value="0" leadInLength="0/1"  />
              <InterpolatingParam id="592" interp="linr"  time="-9999999/1" value="0" leadInLength="0/1"  />
             </VectorParam>
             <InterpolatingParam id="593" interp="linr"  time="-9999999/1" value="1" leadInLength="0/1"  name="opacity"/>
             <InterpolatingParam id="594" interp="linr"  time="0/1" value="0" leadInLength="0/1"  name="cursorOpacity"/>
             <InterpolatingParam id="595" interp="linr"  time="0/1" value="0" leadInLength="0/1"  name="cursorScale"/>
            </Parameters>
            <Attributes>
             <Attribute id="596" value="" name="ident"/>
            </Attributes>
            <MetaData>
             <entry key="AutoAppliedSmartFocus" val="False"/>
             <entry key="WinSubProjectDisplayName" val=""/>
            </MetaData>
            <ExtraData>
             <Entry key="ZoomPanBin">
              <ZoomPanBin id="597"  >
               <ZoomPanKeyframes>
                <ZoomPanKeyframe id="598" timeRangeEnd="-9999999/1" timeRangeDuration="0/1" interpolaterName=""  />
               </ZoomPanKeyframes>
              </ZoomPanBin>
             </Entry>
             <Entry key="CursorEffectBin">
              <CursorEffectBin id="599"  >
               <CursorEffectKeyframes>
               </CursorEffectKeyframes>
              </CursorEffectBin>
             </Entry>
            </ExtraData>
           </ScreenVMFile>
           <ScreenVMFile id="600" start="2293" duration="159" scalar="1/1" mediaStart="6767/1" mediaDuration="159/1" trackNumber="0" src="4" >
            <Transformer>
             <VectorParam id="601"  name="translation">
              <InterpolatingParam id="602" interp="linr"  time="-9999999/1" value="0" leadInLength="0/1"  />
              <InterpolatingParam id="603" interp="linr"  time="-9999999/1" value="0" leadInLength="0/1"  />
              <InterpolatingParam id="604" interp="linr"  time="-9999999/1" value="0" leadInLength="0/1"  />
             </VectorParam>
             <VectorParam id="605"  name="rotation">
              <InterpolatingParam id="606" interp="linr"  time="-9999999/1" value="0" leadInLength="0/1"  />
              <InterpolatingParam id="607" interp="linr"  time="-9999999/1" value="0" leadInLength="0/1"  />
              <InterpolatingParam id="608" interp="linr"  time="-9999999/1" value="0" leadInLength="0/1"  />
             </VectorParam>
             <VectorParam id="609"  name="shear">
              <InterpolatingParam id="610" interp="linr"  time="-9999999/1" value="0" leadInLength="0/1"  />
              <InterpolatingParam id="611" interp="linr"  time="-9999999/1" value="0" leadInLength="0/1"  />
              <InterpolatingParam id="612" interp="linr"  time="-9999999/1" value="0" leadInLength="0/1"  />
             </VectorParam>
             <VectorParam id="613"  name="scale">
              <InterpolatingParam id="614" interp="linr"  time="-9999999/1" value="1" leadInLength="0/1"  />
              <InterpolatingParam id="615" interp="linr"  time="-9999999/1" value="1" leadInLength="0/1"  />
              <InterpolatingParam id="616" interp="linr"  time="-9999999/1" value="1" leadInLength="0/1"  />
             </VectorParam>
             <VectorParam id="617"  name="anchor">
              <InterpolatingParam id="618" interp="linr"  time="0/1" value="0" leadInLength="0/1"  />
              <InterpolatingParam id="619" interp="linr"  time="0/1" value="0" leadInLength="0/1"  />
              <InterpolatingParam id="620" interp="linr"  time="0/1" value="0" leadInLength="0/1"  />
             </VectorParam>
            </Transformer>
            <Parameters>
             <VectorParam id="621"  name="sourceCrop">
              <InterpolatingParam id="622" interp="linr"  time="0/1" value="0" leadInLength="0/1"  />
              <InterpolatingParam id="623" interp="linr"  time="0/1" value="0" leadInLength="0/1"  />
              <InterpolatingParam id="624" interp="linr"  time="0/1" value="0" leadInLength="0/1"  />
              <InterpolatingParam id="625" interp="linr"  time="0/1" value="0" leadInLength="0/1"  />
             </VectorParam>
             <VectorParam id="626"  name="geometryCrop">
              <InterpolatingParam id="627" interp="linr"  time="-9999999/1" value="0" leadInLength="0/1"  />
              <InterpolatingParam id="628" interp="linr"  time="-9999999/1" value="0" leadInLength="0/1"  />
              <InterpolatingParam id="629" interp="linr"  time="-9999999/1" value="0" leadInLength="0/1"  />
              <InterpolatingParam id="630" interp="linr"  time="-9999999/1" value="0" leadInLength="0/1"  />
             </VectorParam>
             <InterpolatingParam id="631" interp="linr"  time="-9999999/1" value="1" leadInLength="0/1"  name="opacity"/>
             <InterpolatingParam id="632" interp="linr"  time="0/1" value="0" leadInLength="0/1"  name="cursorOpacity"/>
             <InterpolatingParam id="633" interp="linr"  time="0/1" value="0" leadInLength="0/1"  name="cursorScale"/>
            </Parameters>
            <Attributes>
             <Attribute id="634" value="" name="ident"/>
            </Attributes>
            <MetaData>
             <entry key="AutoAppliedSmartFocus" val="False"/>
             <entry key="WinSubProjectDisplayName" val=""/>
            </MetaData>
            <ExtraData>
             <Entry key="ZoomPanBin">
              <ZoomPanBin id="635"  >
               <ZoomPanKeyframes>
                <ZoomPanKeyframe id="636" timeRangeEnd="-9999999/1" timeRangeDuration="0/1" interpolaterName=""  />
               </ZoomPanKeyframes>
              </ZoomPanBin>
             </Entry>
             <Entry key="CursorEffectBin">
              <CursorEffectBin id="637"  >
               <CursorEffectKeyframes>
               </CursorEffectKeyframes>
              </CursorEffectBin>
             </Entry>
            </ExtraData>
           </ScreenVMFile>
           <ScreenVMFile id="638" start="2452" duration="242" scalar="1/1" mediaStart="7143/1" mediaDuration="242/1" trackNumber="0" src="4" >
            <Transformer>
             <VectorParam id="639"  name="translation">
              <InterpolatingParam id="640" interp="linr"  time="-9999999/1" value="0" leadInLength="0/1"  />
              <InterpolatingParam id="641" interp="linr"  time="-9999999/1" value="0" leadInLength="0/1"  />
              <InterpolatingParam id="642" interp="linr"  time="-9999999/1" value="0" leadInLength="0/1"  />
             </VectorParam>
             <VectorParam id="643"  name="rotation">
              <InterpolatingParam id="644" interp="linr"  time="-9999999/1" value="0" leadInLength="0/1"  />
              <InterpolatingParam id="645" interp="linr"  time="-9999999/1" value="0" leadInLength="0/1"  />
              <InterpolatingParam id="646" interp="linr"  time="-9999999/1" value="0" leadInLength="0/1"  />
             </VectorParam>
             <VectorParam id="647"  name="shear">
              <InterpolatingParam id="648" interp="linr"  time="-9999999/1" value="0" leadInLength="0/1"  />
              <InterpolatingParam id="649" interp="linr"  time="-9999999/1" value="0" leadInLength="0/1"  />
              <InterpolatingParam id="650" interp="linr"  time="-9999999/1" value="0" leadInLength="0/1"  />
             </VectorParam>
             <VectorParam id="651"  name="scale">
              <InterpolatingParam id="652" interp="linr"  time="-9999999/1" value="1" leadInLength="0/1"  />
              <InterpolatingParam id="653" interp="linr"  time="-9999999/1" value="1" leadInLength="0/1"  />
              <InterpolatingParam id="654" interp="linr"  time="-9999999/1" value="1" leadInLength="0/1"  />
             </VectorParam>
             <VectorParam id="655"  name="anchor">
              <InterpolatingParam id="656" interp="linr"  time="0/1" value="0" leadInLength="0/1"  />
              <InterpolatingParam id="657" interp="linr"  time="0/1" value="0" leadInLength="0/1"  />
              <InterpolatingParam id="658" interp="linr"  time="0/1" value="0" leadInLength="0/1"  />
             </VectorParam>
            </Transformer>
            <Parameters>
             <VectorParam id="659"  name="sourceCrop">
              <InterpolatingParam id="660" interp="linr"  time="0/1" value="0" leadInLength="0/1"  />
              <InterpolatingParam id="661" interp="linr"  time="0/1" value="0" leadInLength="0/1"  />
              <InterpolatingParam id="662" interp="linr"  time="0/1" value="0" leadInLength="0/1"  />
              <InterpolatingParam id="663" interp="linr"  time="0/1" value="0" leadInLength="0/1"  />
             </VectorParam>
             <VectorParam id="664"  name="geometryCrop">
              <InterpolatingParam id="665" interp="linr"  time="-9999999/1" value="0" leadInLength="0/1"  />
              <InterpolatingParam id="666" interp="linr"  time="-9999999/1" value="0" leadInLength="0/1"  />
              <InterpolatingParam id="667" interp="linr"  time="-9999999/1" value="0" leadInLength="0/1"  />
              <InterpolatingParam id="668" interp="linr"  time="-9999999/1" value="0" leadInLength="0/1"  />
             </VectorParam>
             <InterpolatingParam id="669" interp="linr"  time="-9999999/1" value="1" leadInLength="0/1"  name="opacity"/>
             <InterpolatingParam id="670" interp="linr"  time="0/1" value="0" leadInLength="0/1"  name="cursorOpacity"/>
             <InterpolatingParam id="671" interp="linr"  time="0/1" value="0" leadInLength="0/1"  name="cursorScale"/>
            </Parameters>
            <Attributes>
             <Attribute id="672" value="" name="ident"/>
            </Attributes>
            <MetaData>
             <entry key="AutoAppliedSmartFocus" val="False"/>
             <entry key="WinSubProjectDisplayName" val=""/>
            </MetaData>
            <ExtraData>
             <Entry key="ZoomPanBin">
              <ZoomPanBin id="673"  >
               <ZoomPanKeyframes>
                <ZoomPanKeyframe id="674" timeRangeEnd="-9999999/1" timeRangeDuration="0/1" interpolaterName=""  />
               </ZoomPanKeyframes>
              </ZoomPanBin>
             </Entry>
             <Entry key="CursorEffectBin">
              <CursorEffectBin id="675"  >
               <CursorEffectKeyframes>
               </CursorEffectKeyframes>
              </CursorEffectBin>
             </Entry>
            </ExtraData>
           </ScreenVMFile>
           <ScreenVMFile id="676" start="2694" duration="1" scalar="1/1" mediaStart="7523/1" mediaDuration="1/1" trackNumber="0" src="4" >
            <Transformer>
             <VectorParam id="677"  name="translation">
              <InterpolatingParam id="678" interp="linr"  time="-9999999/1" value="0" leadInLength="0/1"  />
              <InterpolatingParam id="679" interp="linr"  time="-9999999/1" value="0" leadInLength="0/1"  />
              <InterpolatingParam id="680" interp="linr"  time="-9999999/1" value="0" leadInLength="0/1"  />
             </VectorParam>
             <VectorParam id="681"  name="rotation">
              <InterpolatingParam id="682" interp="linr"  time="-9999999/1" value="0" leadInLength="0/1"  />
              <InterpolatingParam id="683" interp="linr"  time="-9999999/1" value="0" leadInLength="0/1"  />
              <InterpolatingParam id="684" interp="linr"  time="-9999999/1" value="0" leadInLength="0/1"  />
             </VectorParam>
             <VectorParam id="685"  name="shear">
              <InterpolatingParam id="686" interp="linr"  time="-9999999/1" value="0" leadInLength="0/1"  />
              <InterpolatingParam id="687" interp="linr"  time="-9999999/1" value="0" leadInLength="0/1"  />
              <InterpolatingParam id="688" interp="linr"  time="-9999999/1" value="0" leadInLength="0/1"  />
             </VectorParam>
             <VectorParam id="689"  name="scale">
              <InterpolatingParam id="690" interp="linr"  time="-9999999/1" value="1" leadInLength="0/1"  />
              <InterpolatingParam id="691" interp="linr"  time="-9999999/1" value="1" leadInLength="0/1"  />
              <InterpolatingParam id="692" interp="linr"  time="-9999999/1" value="1" leadInLength="0/1"  />
             </VectorParam>
             <VectorParam id="693"  name="anchor">
              <InterpolatingParam id="694" interp="linr"  time="0/1" value="0" leadInLength="0/1"  />
              <InterpolatingParam id="695" interp="linr"  time="0/1" value="0" leadInLength="0/1"  />
              <InterpolatingParam id="696" interp="linr"  time="0/1" value="0" leadInLength="0/1"  />
             </VectorParam>
            </Transformer>
            <Parameters>
             <VectorParam id="697"  name="sourceCrop">
              <InterpolatingParam id="698" interp="linr"  time="0/1" value="0" leadInLength="0/1"  />
              <InterpolatingParam id="699" interp="linr"  time="0/1" value="0" leadInLength="0/1"  />
              <InterpolatingParam id="700" interp="linr"  time="0/1" value="0" leadInLength="0/1"  />
              <InterpolatingParam id="701" interp="linr"  time="0/1" value="0" leadInLength="0/1"  />
             </VectorParam>
             <VectorParam id="702"  name="geometryCrop">
              <InterpolatingParam id="703" interp="linr"  time="-9999999/1" value="0" leadInLength="0/1"  />
              <InterpolatingParam id="704" interp="linr"  time="-9999999/1" value="0" leadInLength="0/1"  />
              <InterpolatingParam id="705" interp="linr"  time="-9999999/1" value="0" leadInLength="0/1"  />
              <InterpolatingParam id="706" interp="linr"  time="-9999999/1" value="0" leadInLength="0/1"  />
             </VectorParam>
             <InterpolatingParam id="707" interp="linr"  time="-9999999/1" value="1" leadInLength="0/1"  name="opacity"/>
             <InterpolatingParam id="708" interp="linr"  time="0/1" value="0" leadInLength="0/1"  name="cursorOpacity"/>
             <InterpolatingParam id="709" interp="linr"  time="0/1" value="0" leadInLength="0/1"  name="cursorScale"/>
            </Parameters>
            <Attributes>
             <Attribute id="710" value="" name="ident"/>
            </Attributes>
            <MetaData>
             <entry key="AutoAppliedSmartFocus" val="False"/>
             <entry key="WinSubProjectDisplayName" val=""/>
            </MetaData>
            <ExtraData>
             <Entry key="ZoomPanBin">
              <ZoomPanBin id="711"  >
               <ZoomPanKeyframes>
                <ZoomPanKeyframe id="712" timeRangeEnd="-9999999/1" timeRangeDuration="0/1" interpolaterName=""  />
               </ZoomPanKeyframes>
              </ZoomPanBin>
             </Entry>
             <Entry key="CursorEffectBin">
              <CursorEffectBin id="713"  >
               <CursorEffectKeyframes>
               </CursorEffectKeyframes>
              </CursorEffectBin>
             </Entry>
            </ExtraData>
           </ScreenVMFile>
           <ScreenVMFile id="714" start="2695" duration="216" scalar="1/1" mediaStart="8614/1" mediaDuration="216/1" trackNumber="0" src="4" >
            <Transformer>
             <VectorParam id="715"  name="translation">
              <InterpolatingParam id="716" interp="linr"  time="-9999999/1" value="0" leadInLength="0/1"  />
              <InterpolatingParam id="717" interp="linr"  time="-9999999/1" value="0" leadInLength="0/1"  />
              <InterpolatingParam id="718" interp="linr"  time="-9999999/1" value="0" leadInLength="0/1"  />
             </VectorParam>
             <VectorParam id="719"  name="rotation">
              <InterpolatingParam id="720" interp="linr"  time="-9999999/1" value="0" leadInLength="0/1"  />
              <InterpolatingParam id="721" interp="linr"  time="-9999999/1" value="0" leadInLength="0/1"  />
              <InterpolatingParam id="722" interp="linr"  time="-9999999/1" value="0" leadInLength="0/1"  />
             </VectorParam>
             <VectorParam id="723"  name="shear">
              <InterpolatingParam id="724" interp="linr"  time="-9999999/1" value="0" leadInLength="0/1"  />
              <InterpolatingParam id="725" interp="linr"  time="-9999999/1" value="0" leadInLength="0/1"  />
              <InterpolatingParam id="726" interp="linr"  time="-9999999/1" value="0" leadInLength="0/1"  />
             </VectorParam>
             <VectorParam id="727"  name="scale">
              <InterpolatingParam id="728" interp="linr"  time="-9999999/1" value="1" leadInLength="0/1"  />
              <InterpolatingParam id="729" interp="linr"  time="-9999999/1" value="1" leadInLength="0/1"  />
              <InterpolatingParam id="730" interp="linr"  time="-9999999/1" value="1" leadInLength="0/1"  />
             </VectorParam>
             <VectorParam id="731"  name="anchor">
              <InterpolatingParam id="732" interp="linr"  time="0/1" value="0" leadInLength="0/1"  />
              <InterpolatingParam id="733" interp="linr"  time="0/1" value="0" leadInLength="0/1"  />
              <InterpolatingParam id="734" interp="linr"  time="0/1" value="0" leadInLength="0/1"  />
             </VectorParam>
            </Transformer>
            <Parameters>
             <VectorParam id="735"  name="sourceCrop">
              <InterpolatingParam id="736" interp="linr"  time="0/1" value="0" leadInLength="0/1"  />
              <InterpolatingParam id="737" interp="linr"  time="0/1" value="0" leadInLength="0/1"  />
              <InterpolatingParam id="738" interp="linr"  time="0/1" value="0" leadInLength="0/1"  />
              <InterpolatingParam id="739" interp="linr"  time="0/1" value="0" leadInLength="0/1"  />
             </VectorParam>
             <VectorParam id="740"  name="geometryCrop">
              <InterpolatingParam id="741" interp="linr"  time="-9999999/1" value="0" leadInLength="0/1"  />
              <InterpolatingParam id="742" interp="linr"  time="-9999999/1" value="0" leadInLength="0/1"  />
              <InterpolatingParam id="743" interp="linr"  time="-9999999/1" value="0" leadInLength="0/1"  />
              <InterpolatingParam id="744" interp="linr"  time="-9999999/1" value="0" leadInLength="0/1"  />
             </VectorParam>
             <InterpolatingParam id="745" interp="linr"  time="-9999999/1" value="1" leadInLength="0/1"  name="opacity"/>
             <InterpolatingParam id="746" interp="linr"  time="0/1" value="0" leadInLength="0/1"  name="cursorOpacity"/>
             <InterpolatingParam id="747" interp="linr"  time="0/1" value="0" leadInLength="0/1"  name="cursorScale"/>
            </Parameters>
            <Attributes>
             <Attribute id="748" value="" name="ident"/>
            </Attributes>
            <MetaData>
             <entry key="AutoAppliedSmartFocus" val="False"/>
             <entry key="WinSubProjectDisplayName" val=""/>
            </MetaData>
            <ExtraData>
             <Entry key="ZoomPanBin">
              <ZoomPanBin id="749"  >
               <ZoomPanKeyframes>
                <ZoomPanKeyframe id="750" timeRangeEnd="-9999999/1" timeRangeDuration="0/1" interpolaterName=""  />
               </ZoomPanKeyframes>
              </ZoomPanBin>
             </Entry>
             <Entry key="CursorEffectBin">
              <CursorEffectBin id="751"  >
               <CursorEffectKeyframes>
               </CursorEffectKeyframes>
              </CursorEffectBin>
             </Entry>
            </ExtraData>
           </ScreenVMFile>
           <ScreenVMFile id="752" start="2911" duration="29" scalar="1/1" mediaStart="9325/1" mediaDuration="29/1" trackNumber="0" src="4" >
            <Transformer>
             <VectorParam id="753"  name="translation">
              <InterpolatingParam id="754" interp="linr"  time="-9999999/1" value="0" leadInLength="0/1"  />
              <InterpolatingParam id="755" interp="linr"  time="-9999999/1" value="0" leadInLength="0/1"  />
              <InterpolatingParam id="756" interp="linr"  time="-9999999/1" value="0" leadInLength="0/1"  />
             </VectorParam>
             <VectorParam id="757"  name="rotation">
              <InterpolatingParam id="758" interp="linr"  time="-9999999/1" value="0" leadInLength="0/1"  />
              <InterpolatingParam id="759" interp="linr"  time="-9999999/1" value="0" leadInLength="0/1"  />
              <InterpolatingParam id="760" interp="linr"  time="-9999999/1" value="0" leadInLength="0/1"  />
             </VectorParam>
             <VectorParam id="761"  name="shear">
              <InterpolatingParam id="762" interp="linr"  time="-9999999/1" value="0" leadInLength="0/1"  />
              <InterpolatingParam id="763" interp="linr"  time="-9999999/1" value="0" leadInLength="0/1"  />
              <InterpolatingParam id="764" interp="linr"  time="-9999999/1" value="0" leadInLength="0/1"  />
             </VectorParam>
             <VectorParam id="765"  name="scale">
              <InterpolatingParam id="766" interp="linr"  time="-9999999/1" value="1" leadInLength="0/1"  />
              <InterpolatingParam id="767" interp="linr"  time="-9999999/1" value="1" leadInLength="0/1"  />
              <InterpolatingParam id="768" interp="linr"  time="-9999999/1" value="1" leadInLength="0/1"  />
             </VectorParam>
             <VectorParam id="769"  name="anchor">
              <InterpolatingParam id="770" interp="linr"  time="0/1" value="0" leadInLength="0/1"  />
              <InterpolatingParam id="771" interp="linr"  time="0/1" value="0" leadInLength="0/1"  />
              <InterpolatingParam id="772" interp="linr"  time="0/1" value="0" leadInLength="0/1"  />
             </VectorParam>
            </Transformer>
            <Parameters>
             <VectorParam id="773"  name="sourceCrop">
              <InterpolatingParam id="774" interp="linr"  time="0/1" value="0" leadInLength="0/1"  />
              <InterpolatingParam id="775" interp="linr"  time="0/1" value="0" leadInLength="0/1"  />
              <InterpolatingParam id="776" interp="linr"  time="0/1" value="0" leadInLength="0/1"  />
              <InterpolatingParam id="777" interp="linr"  time="0/1" value="0" leadInLength="0/1"  />
             </VectorParam>
             <VectorParam id="778"  name="geometryCrop">
              <InterpolatingParam id="779" interp="linr"  time="-9999999/1" value="0" leadInLength="0/1"  />
              <InterpolatingParam id="780" interp="linr"  time="-9999999/1" value="0" leadInLength="0/1"  />
              <InterpolatingParam id="781" interp="linr"  time="-9999999/1" value="0" leadInLength="0/1"  />
              <InterpolatingParam id="782" interp="linr"  time="-9999999/1" value="0" leadInLength="0/1"  />
             </VectorParam>
             <InterpolatingParam id="783" interp="linr"  time="-9999999/1" value="1" leadInLength="0/1"  name="opacity"/>
             <InterpolatingParam id="784" interp="linr"  time="0/1" value="0" leadInLength="0/1"  name="cursorOpacity"/>
             <InterpolatingParam id="785" interp="linr"  time="0/1" value="0" leadInLength="0/1"  name="cursorScale"/>
            </Parameters>
            <Attributes>
             <Attribute id="786" value="" name="ident"/>
            </Attributes>
            <MetaData>
             <entry key="AutoAppliedSmartFocus" val="False"/>
             <entry key="WinSubProjectDisplayName" val=""/>
            </MetaData>
            <ExtraData>
             <Entry key="ZoomPanBin">
              <ZoomPanBin id="787"  >
               <ZoomPanKeyframes>
                <ZoomPanKeyframe id="788" timeRangeEnd="-9999999/1" timeRangeDuration="0/1" interpolaterName=""  />
               </ZoomPanKeyframes>
              </ZoomPanBin>
             </Entry>
             <Entry key="CursorEffectBin">
              <CursorEffectBin id="789"  >
               <CursorEffectKeyframes>
               </CursorEffectKeyframes>
              </CursorEffectBin>
             </Entry>
            </ExtraData>
           </ScreenVMFile>
           <ScreenVMFile id="790" start="2940" duration="20" scalar="1/1" mediaStart="9634/1" mediaDuration="20/1" trackNumber="0" src="4" >
            <Transformer>
             <VectorParam id="791"  name="translation">
              <InterpolatingParam id="792" interp="linr"  time="-9999999/1" value="0" leadInLength="0/1"  />
              <InterpolatingParam id="793" interp="linr"  time="-9999999/1" value="0" leadInLength="0/1"  />
              <InterpolatingParam id="794" interp="linr"  time="-9999999/1" value="0" leadInLength="0/1"  />
             </VectorParam>
             <VectorParam id="795"  name="rotation">
              <InterpolatingParam id="796" interp="linr"  time="-9999999/1" value="0" leadInLength="0/1"  />
              <InterpolatingParam id="797" interp="linr"  time="-9999999/1" value="0" leadInLength="0/1"  />
              <InterpolatingParam id="798" interp="linr"  time="-9999999/1" value="0" leadInLength="0/1"  />
             </VectorParam>
             <VectorParam id="799"  name="shear">
              <InterpolatingParam id="800" interp="linr"  time="-9999999/1" value="0" leadInLength="0/1"  />
              <InterpolatingParam id="801" interp="linr"  time="-9999999/1" value="0" leadInLength="0/1"  />
              <InterpolatingParam id="802" interp="linr"  time="-9999999/1" value="0" leadInLength="0/1"  />
             </VectorParam>
             <VectorParam id="803"  name="scale">
              <InterpolatingParam id="804" interp="linr"  time="-9999999/1" value="1" leadInLength="0/1"  />
              <InterpolatingParam id="805" interp="linr"  time="-9999999/1" value="1" leadInLength="0/1"  />
              <InterpolatingParam id="806" interp="linr"  time="-9999999/1" value="1" leadInLength="0/1"  />
             </VectorParam>
             <VectorParam id="807"  name="anchor">
              <InterpolatingParam id="808" interp="linr"  time="0/1" value="0" leadInLength="0/1"  />
              <InterpolatingParam id="809" interp="linr"  time="0/1" value="0" leadInLength="0/1"  />
              <InterpolatingParam id="810" interp="linr"  time="0/1" value="0" leadInLength="0/1"  />
             </VectorParam>
            </Transformer>
            <Parameters>
             <VectorParam id="811"  name="sourceCrop">
              <InterpolatingParam id="812" interp="linr"  time="0/1" value="0" leadInLength="0/1"  />
              <InterpolatingParam id="813" interp="linr"  time="0/1" value="0" leadInLength="0/1"  />
              <InterpolatingParam id="814" interp="linr"  time="0/1" value="0" leadInLength="0/1"  />
              <InterpolatingParam id="815" interp="linr"  time="0/1" value="0" leadInLength="0/1"  />
             </VectorParam>
             <VectorParam id="816"  name="geometryCrop">
              <InterpolatingParam id="817" interp="linr"  time="-9999999/1" value="0" leadInLength="0/1"  />
              <InterpolatingParam id="818" interp="linr"  time="-9999999/1" value="0" leadInLength="0/1"  />
              <InterpolatingParam id="819" interp="linr"  time="-9999999/1" value="0" leadInLength="0/1"  />
              <InterpolatingParam id="820" interp="linr"  time="-9999999/1" value="0" leadInLength="0/1"  />
             </VectorParam>
             <InterpolatingParam id="821" interp="linr"  time="-9999999/1" value="1" leadInLength="0/1"  name="opacity"/>
             <InterpolatingParam id="822" interp="linr"  time="0/1" value="0" leadInLength="0/1"  name="cursorOpacity"/>
             <InterpolatingParam id="823" interp="linr"  time="0/1" value="0" leadInLength="0/1"  name="cursorScale"/>
            </Parameters>
            <Attributes>
             <Attribute id="824" value="" name="ident"/>
            </Attributes>
            <MetaData>
             <entry key="AutoAppliedSmartFocus" val="False"/>
             <entry key="WinSubProjectDisplayName" val=""/>
            </MetaData>
            <ExtraData>
             <Entry key="ZoomPanBin">
              <ZoomPanBin id="825"  >
               <ZoomPanKeyframes>
                <ZoomPanKeyframe id="826" timeRangeEnd="-9999999/1" timeRangeDuration="0/1" interpolaterName=""  />
               </ZoomPanKeyframes>
              </ZoomPanBin>
             </Entry>
             <Entry key="CursorEffectBin">
              <CursorEffectBin id="827"  >
               <CursorEffectKeyframes>
               </CursorEffectKeyframes>
              </CursorEffectBin>
             </Entry>
            </ExtraData>
           </ScreenVMFile>
           <ScreenVMFile id="828" start="2960" duration="5" scalar="1/1" mediaStart="9706/1" mediaDuration="5/1" trackNumber="0" src="4" >
            <Transformer>
             <VectorParam id="829"  name="translation">
              <InterpolatingParam id="830" interp="linr"  time="-9999999/1" value="0" leadInLength="0/1"  />
              <InterpolatingParam id="831" interp="linr"  time="-9999999/1" value="0" leadInLength="0/1"  />
              <InterpolatingParam id="832" interp="linr"  time="-9999999/1" value="0" leadInLength="0/1"  />
             </VectorParam>
             <VectorParam id="833"  name="rotation">
              <InterpolatingParam id="834" interp="linr"  time="-9999999/1" value="0" leadInLength="0/1"  />
              <InterpolatingParam id="835" interp="linr"  time="-9999999/1" value="0" leadInLength="0/1"  />
              <InterpolatingParam id="836" interp="linr"  time="-9999999/1" value="0" leadInLength="0/1"  />
             </VectorParam>
             <VectorParam id="837"  name="shear">
              <InterpolatingParam id="838" interp="linr"  time="-9999999/1" value="0" leadInLength="0/1"  />
              <InterpolatingParam id="839" interp="linr"  time="-9999999/1" value="0" leadInLength="0/1"  />
              <InterpolatingParam id="840" interp="linr"  time="-9999999/1" value="0" leadInLength="0/1"  />
             </VectorParam>
             <VectorParam id="841"  name="scale">
              <InterpolatingParam id="842" interp="linr"  time="-9999999/1" value="1" leadInLength="0/1"  />
              <InterpolatingParam id="843" interp="linr"  time="-9999999/1" value="1" leadInLength="0/1"  />
              <InterpolatingParam id="844" interp="linr"  time="-9999999/1" value="1" leadInLength="0/1"  />
             </VectorParam>
             <VectorParam id="845"  name="anchor">
              <InterpolatingParam id="846" interp="linr"  time="0/1" value="0" leadInLength="0/1"  />
              <InterpolatingParam id="847" interp="linr"  time="0/1" value="0" leadInLength="0/1"  />
              <InterpolatingParam id="848" interp="linr"  time="0/1" value="0" leadInLength="0/1"  />
             </VectorParam>
            </Transformer>
            <Parameters>
             <VectorParam id="849"  name="sourceCrop">
              <InterpolatingParam id="850" interp="linr"  time="0/1" value="0" leadInLength="0/1"  />
              <InterpolatingParam id="851" interp="linr"  time="0/1" value="0" leadInLength="0/1"  />
              <InterpolatingParam id="852" interp="linr"  time="0/1" value="0" leadInLength="0/1"  />
              <InterpolatingParam id="853" interp="linr"  time="0/1" value="0" leadInLength="0/1"  />
             </VectorParam>
             <VectorParam id="854"  name="geometryCrop">
              <InterpolatingParam id="855" interp="linr"  time="-9999999/1" value="0" leadInLength="0/1"  />
              <InterpolatingParam id="856" interp="linr"  time="-9999999/1" value="0" leadInLength="0/1"  />
              <InterpolatingParam id="857" interp="linr"  time="-9999999/1" value="0" leadInLength="0/1"  />
              <InterpolatingParam id="858" interp="linr"  time="-9999999/1" value="0" leadInLength="0/1"  />
             </VectorParam>
             <InterpolatingParam id="859" interp="linr"  time="-9999999/1" value="1" leadInLength="0/1"  name="opacity"/>
             <InterpolatingParam id="860" interp="linr"  time="0/1" value="0" leadInLength="0/1"  name="cursorOpacity"/>
             <InterpolatingParam id="861" interp="linr"  time="0/1" value="0" leadInLength="0/1"  name="cursorScale"/>
            </Parameters>
            <Attributes>
             <Attribute id="862" value="" name="ident"/>
            </Attributes>
            <MetaData>
             <entry key="AutoAppliedSmartFocus" val="False"/>
             <entry key="WinSubProjectDisplayName" val=""/>
            </MetaData>
            <ExtraData>
             <Entry key="ZoomPanBin">
              <ZoomPanBin id="863"  >
               <ZoomPanKeyframes>
                <ZoomPanKeyframe id="864" timeRangeEnd="-9999999/1" timeRangeDuration="0/1" interpolaterName=""  />
               </ZoomPanKeyframes>
              </ZoomPanBin>
             </Entry>
             <Entry key="CursorEffectBin">
              <CursorEffectBin id="865"  >
               <CursorEffectKeyframes>
               </CursorEffectKeyframes>
              </CursorEffectBin>
             </Entry>
            </ExtraData>
           </ScreenVMFile>
           <ScreenVMFile id="866" start="2965" duration="59" scalar="1/1" mediaStart="9734/1" mediaDuration="59/1" trackNumber="0" src="4" >
            <Transformer>
             <VectorParam id="867"  name="translation">
              <InterpolatingParam id="868" interp="linr"  time="-9999999/1" value="0" leadInLength="0/1"  />
              <InterpolatingParam id="869" interp="linr"  time="-9999999/1" value="0" leadInLength="0/1"  />
              <InterpolatingParam id="870" interp="linr"  time="-9999999/1" value="0" leadInLength="0/1"  />
             </VectorParam>
             <VectorParam id="871"  name="rotation">
              <InterpolatingParam id="872" interp="linr"  time="-9999999/1" value="0" leadInLength="0/1"  />
              <InterpolatingParam id="873" interp="linr"  time="-9999999/1" value="0" leadInLength="0/1"  />
              <InterpolatingParam id="874" interp="linr"  time="-9999999/1" value="0" leadInLength="0/1"  />
             </VectorParam>
             <VectorParam id="875"  name="shear">
              <InterpolatingParam id="876" interp="linr"  time="-9999999/1" value="0" leadInLength="0/1"  />
              <InterpolatingParam id="877" interp="linr"  time="-9999999/1" value="0" leadInLength="0/1"  />
              <InterpolatingParam id="878" interp="linr"  time="-9999999/1" value="0" leadInLength="0/1"  />
             </VectorParam>
             <VectorParam id="879"  name="scale">
              <InterpolatingParam id="880" interp="linr"  time="-9999999/1" value="1" leadInLength="0/1"  />
              <InterpolatingParam id="881" interp="linr"  time="-9999999/1" value="1" leadInLength="0/1"  />
              <InterpolatingParam id="882" interp="linr"  time="-9999999/1" value="1" leadInLength="0/1"  />
             </VectorParam>
             <VectorParam id="883"  name="anchor">
              <InterpolatingParam id="884" interp="linr"  time="0/1" value="0" leadInLength="0/1"  />
              <InterpolatingParam id="885" interp="linr"  time="0/1" value="0" leadInLength="0/1"  />
              <InterpolatingParam id="886" interp="linr"  time="0/1" value="0" leadInLength="0/1"  />
             </VectorParam>
            </Transformer>
            <Parameters>
             <VectorParam id="887"  name="sourceCrop">
              <InterpolatingParam id="888" interp="linr"  time="0/1" value="0" leadInLength="0/1"  />
              <InterpolatingParam id="889" interp="linr"  time="0/1" value="0" leadInLength="0/1"  />
              <InterpolatingParam id="890" interp="linr"  time="0/1" value="0" leadInLength="0/1"  />
              <InterpolatingParam id="891" interp="linr"  time="0/1" value="0" leadInLength="0/1"  />
             </VectorParam>
             <VectorParam id="892"  name="geometryCrop">
              <InterpolatingParam id="893" interp="linr"  time="-9999999/1" value="0" leadInLength="0/1"  />
              <InterpolatingParam id="894" interp="linr"  time="-9999999/1" value="0" leadInLength="0/1"  />
              <InterpolatingParam id="895" interp="linr"  time="-9999999/1" value="0" leadInLength="0/1"  />
              <InterpolatingParam id="896" interp="linr"  time="-9999999/1" value="0" leadInLength="0/1"  />
             </VectorParam>
             <InterpolatingParam id="897" interp="linr"  time="-9999999/1" value="1" leadInLength="0/1"  name="opacity"/>
             <InterpolatingParam id="898" interp="linr"  time="0/1" value="0" leadInLength="0/1"  name="cursorOpacity"/>
             <InterpolatingParam id="899" interp="linr"  time="0/1" value="0" leadInLength="0/1"  name="cursorScale"/>
            </Parameters>
            <Attributes>
             <Attribute id="900" value="" name="ident"/>
            </Attributes>
            <MetaData>
             <entry key="AutoAppliedSmartFocus" val="False"/>
             <entry key="WinSubProjectDisplayName" val=""/>
            </MetaData>
            <ExtraData>
             <Entry key="ZoomPanBin">
              <ZoomPanBin id="901"  >
               <ZoomPanKeyframes>
                <ZoomPanKeyframe id="902" timeRangeEnd="-9999999/1" timeRangeDuration="0/1" interpolaterName=""  />
               </ZoomPanKeyframes>
              </ZoomPanBin>
             </Entry>
             <Entry key="CursorEffectBin">
              <CursorEffectBin id="903"  >
               <CursorEffectKeyframes>
               </CursorEffectKeyframes>
              </CursorEffectBin>
             </Entry>
            </ExtraData>
           </ScreenVMFile>
           <ScreenVMFile id="904" start="3024" duration="415" scalar="1/1" mediaStart="9928/1" mediaDuration="415/1" trackNumber="0" src="4" >
            <Transformer>
             <VectorParam id="905"  name="translation">
              <InterpolatingParam id="906" interp="linr"  time="-9999999/1" value="0" leadInLength="0/1"  />
              <InterpolatingParam id="907" interp="linr"  time="-9999999/1" value="0" leadInLength="0/1"  />
              <InterpolatingParam id="908" interp="linr"  time="-9999999/1" value="0" leadInLength="0/1"  />
             </VectorParam>
             <VectorParam id="909"  name="rotation">
              <InterpolatingParam id="910" interp="linr"  time="-9999999/1" value="0" leadInLength="0/1"  />
              <InterpolatingParam id="911" interp="linr"  time="-9999999/1" value="0" leadInLength="0/1"  />
              <InterpolatingParam id="912" interp="linr"  time="-9999999/1" value="0" leadInLength="0/1"  />
             </VectorParam>
             <VectorParam id="913"  name="shear">
              <InterpolatingParam id="914" interp="linr"  time="-9999999/1" value="0" leadInLength="0/1"  />
              <InterpolatingParam id="915" interp="linr"  time="-9999999/1" value="0" leadInLength="0/1"  />
              <InterpolatingParam id="916" interp="linr"  time="-9999999/1" value="0" leadInLength="0/1"  />
             </VectorParam>
             <VectorParam id="917"  name="scale">
              <InterpolatingParam id="918" interp="linr"  time="-9999999/1" value="1" leadInLength="0/1"  />
              <InterpolatingParam id="919" interp="linr"  time="-9999999/1" value="1" leadInLength="0/1"  />
              <InterpolatingParam id="920" interp="linr"  time="-9999999/1" value="1" leadInLength="0/1"  />
             </VectorParam>
             <VectorParam id="921"  name="anchor">
              <InterpolatingParam id="922" interp="linr"  time="0/1" value="0" leadInLength="0/1"  />
              <InterpolatingParam id="923" interp="linr"  time="0/1" value="0" leadInLength="0/1"  />
              <InterpolatingParam id="924" interp="linr"  time="0/1" value="0" leadInLength="0/1"  />
             </VectorParam>
            </Transformer>
            <Parameters>
             <VectorParam id="925"  name="sourceCrop">
              <InterpolatingParam id="926" interp="linr"  time="0/1" value="0" leadInLength="0/1"  />
              <InterpolatingParam id="927" interp="linr"  time="0/1" value="0" leadInLength="0/1"  />
              <InterpolatingParam id="928" interp="linr"  time="0/1" value="0" leadInLength="0/1"  />
              <InterpolatingParam id="929" interp="linr"  time="0/1" value="0" leadInLength="0/1"  />
             </VectorParam>
             <VectorParam id="930"  name="geometryCrop">
              <InterpolatingParam id="931" interp="linr"  time="-9999999/1" value="0" leadInLength="0/1"  />
              <InterpolatingParam id="932" interp="linr"  time="-9999999/1" value="0" leadInLength="0/1"  />
              <InterpolatingParam id="933" interp="linr"  time="-9999999/1" value="0" leadInLength="0/1"  />
              <InterpolatingParam id="934" interp="linr"  time="-9999999/1" value="0" leadInLength="0/1"  />
             </VectorParam>
             <InterpolatingParam id="935" interp="linr"  time="-9999999/1" value="1" leadInLength="0/1"  name="opacity"/>
             <InterpolatingParam id="936" interp="linr"  time="0/1" value="0" leadInLength="0/1"  name="cursorOpacity"/>
             <InterpolatingParam id="937" interp="linr"  time="0/1" value="0" leadInLength="0/1"  name="cursorScale"/>
            </Parameters>
            <Attributes>
             <Attribute id="938" value="" name="ident"/>
            </Attributes>
            <MetaData>
             <entry key="AutoAppliedSmartFocus" val="False"/>
             <entry key="WinSubProjectDisplayName" val=""/>
            </MetaData>
            <ExtraData>
             <Entry key="ZoomPanBin">
              <ZoomPanBin id="939"  >
               <ZoomPanKeyframes>
                <ZoomPanKeyframe id="940" timeRangeEnd="-9999999/1" timeRangeDuration="0/1" interpolaterName=""  />
               </ZoomPanKeyframes>
              </ZoomPanBin>
             </Entry>
             <Entry key="CursorEffectBin">
              <CursorEffectBin id="941"  >
               <CursorEffectKeyframes>
               </CursorEffectKeyframes>
              </CursorEffectBin>
             </Entry>
            </ExtraData>
           </ScreenVMFile>
           <ScreenVMFile id="942" start="3439" duration="65" scalar="1/1" mediaStart="10803/1" mediaDuration="65/1" trackNumber="0" src="4" >
            <Transformer>
             <VectorParam id="943"  name="translation">
              <InterpolatingParam id="944" interp="linr"  time="-9999999/1" value="0" leadInLength="0/1"  />
              <InterpolatingParam id="945" interp="linr"  time="-9999999/1" value="0" leadInLength="0/1"  />
              <InterpolatingParam id="946" interp="linr"  time="-9999999/1" value="0" leadInLength="0/1"  />
             </VectorParam>
             <VectorParam id="947"  name="rotation">
              <InterpolatingParam id="948" interp="linr"  time="-9999999/1" value="0" leadInLength="0/1"  />
              <InterpolatingParam id="949" interp="linr"  time="-9999999/1" value="0" leadInLength="0/1"  />
              <InterpolatingParam id="950" interp="linr"  time="-9999999/1" value="0" leadInLength="0/1"  />
             </VectorParam>
             <VectorParam id="951"  name="shear">
              <InterpolatingParam id="952" interp="linr"  time="-9999999/1" value="0" leadInLength="0/1"  />
              <InterpolatingParam id="953" interp="linr"  time="-9999999/1" value="0" leadInLength="0/1"  />
              <InterpolatingParam id="954" interp="linr"  time="-9999999/1" value="0" leadInLength="0/1"  />
             </VectorParam>
             <VectorParam id="955"  name="scale">
              <InterpolatingParam id="956" interp="linr"  time="-9999999/1" value="1" leadInLength="0/1"  />
              <InterpolatingParam id="957" interp="linr"  time="-9999999/1" value="1" leadInLength="0/1"  />
              <InterpolatingParam id="958" interp="linr"  time="-9999999/1" value="1" leadInLength="0/1"  />
             </VectorParam>
             <VectorParam id="959"  name="anchor">
              <InterpolatingParam id="960" interp="linr"  time="0/1" value="0" leadInLength="0/1"  />
              <InterpolatingParam id="961" interp="linr"  time="0/1" value="0" leadInLength="0/1"  />
              <InterpolatingParam id="962" interp="linr"  time="0/1" value="0" leadInLength="0/1"  />
             </VectorParam>
            </Transformer>
            <Parameters>
             <VectorParam id="963"  name="sourceCrop">
              <InterpolatingParam id="964" interp="linr"  time="0/1" value="0" leadInLength="0/1"  />
              <InterpolatingParam id="965" interp="linr"  time="0/1" value="0" leadInLength="0/1"  />
              <InterpolatingParam id="966" interp="linr"  time="0/1" value="0" leadInLength="0/1"  />
              <InterpolatingParam id="967" interp="linr"  time="0/1" value="0" leadInLength="0/1"  />
             </VectorParam>
             <VectorParam id="968"  name="geometryCrop">
              <InterpolatingParam id="969" interp="linr"  time="-9999999/1" value="0" leadInLength="0/1"  />
              <InterpolatingParam id="970" interp="linr"  time="-9999999/1" value="0" leadInLength="0/1"  />
              <InterpolatingParam id="971" interp="linr"  time="-9999999/1" value="0" leadInLength="0/1"  />
              <InterpolatingParam id="972" interp="linr"  time="-9999999/1" value="0" leadInLength="0/1"  />
             </VectorParam>
             <InterpolatingParam id="973" interp="linr"  time="-9999999/1" value="1" leadInLength="0/1"  name="opacity"/>
             <InterpolatingParam id="974" interp="linr"  time="0/1" value="0" leadInLength="0/1"  name="cursorOpacity"/>
             <InterpolatingParam id="975" interp="linr"  time="0/1" value="0" leadInLength="0/1"  name="cursorScale"/>
            </Parameters>
            <Attributes>
             <Attribute id="976" value="" name="ident"/>
            </Attributes>
            <MetaData>
             <entry key="AutoAppliedSmartFocus" val="False"/>
             <entry key="WinSubProjectDisplayName" val=""/>
            </MetaData>
            <ExtraData>
             <Entry key="ZoomPanBin">
              <ZoomPanBin id="977"  >
               <ZoomPanKeyframes>
                <ZoomPanKeyframe id="978" timeRangeEnd="-9999999/1" timeRangeDuration="0/1" interpolaterName=""  />
               </ZoomPanKeyframes>
              </ZoomPanBin>
             </Entry>
             <Entry key="CursorEffectBin">
              <CursorEffectBin id="979"  >
               <CursorEffectKeyframes>
               </CursorEffectKeyframes>
              </CursorEffectBin>
             </Entry>
            </ExtraData>
           </ScreenVMFile>
          </Medias>
         </GenericTrack>
        </StitchedMedia>
       </Medias>
      </GenericTrack>
      <GenericTrack id="980"  >
       <Attributes>
        <Attribute id="981" value="" name="ident"/>
        <Attribute id="982" value="0" name="audioMuted"/>
        <Attribute id="983" value="0" name="videoHidden"/>
       </Attributes>
       <MetaData>
        <entry key="IsLocked" val="False"/>
        <entry key="WinTrackHeight" val="94"/>
       </MetaData>
       <Medias>
        <Caption id="984" start="40" duration="928" scalar="1/1" mediaStart="22/1" mediaDuration="928/1" maxMediaDuration="9.22337e+018"  allowTrimOut="1"  >
         <Parameters>
          <Parameter id="985"  name="captionData">
           <Keyframes>
           <Keyframe id="986"  time="-9999999/1" value="{29,Installing Windows Calculator,0}" leadInLength="0/1"  />
           <Keyframe id="987"  time="122/1" value="{100,This is a custom made installation setup for the app built inside &#xa;Visual Studio with InstallShield.,0}" leadInLength="0/1"  />
           <Keyframe id="988"  time="302/1" value="{37,Developed in C# programming language.,0}" leadInLength="0/1"  />
           <Keyframe id="989"  time="533/1" value="{52,Designed using Windows Forms for the user interface.,0}" leadInLength="0/1"  />
           <Keyframe id="990"  time="737/1" value="{75,In action performing standard calculations. Some of the functions &#xa;include:,0}" leadInLength="0/1"  />
           </Keyframes>
          </Parameter>
          <Parameter id="991"  name="toc"/>
          <Parameter id="992"  name="quiz"/>
         </Parameters>
         <Attributes>
         </Attributes>
         <MetaData>
          <entry key="WinSubProjectDisplayName" val=""/>
         </MetaData>
        </Caption>
        <Caption id="993" start="968" duration="317" scalar="1/1" mediaStart="820/1" mediaDuration="317/1" maxMediaDuration="9.22337e+018"  allowTrimOut="1"  >
         <Parameters>
          <Parameter id="994"  name="captionData">
           <Keyframes>
           <Keyframe id="995"  time="-9999999/1" value="{28,Istalling Windows Calculator,0}" leadInLength="0/1"  />
           <Keyframe id="996"  time="111/1" value="{60,Custom made InstallShield Project build inside Visual Studio,0}" leadInLength="0/1"  />
           <Keyframe id="997"  time="286/1" value="{0,,0}" leadInLength="0/1"  />
           <Keyframe id="998"  time="716/1" value="{54,- Delete last entry and perform different calculation;,0}" leadInLength="0/1"  />
           <Keyframe id="999"  time="1249/1" value="{57,- Users can change the mathematical operator at any time;,0}" leadInLength="0/1"  />
           <Keyframe id="1000"  time="1614/1" value="{132,- Some of the processes happening behind the scenes are: &#xD;User Input Validation, Error Handling for smooth application &#xa;performance.,0}" leadInLength="0/1"  />
           <Keyframe id="1001"  time="1829/1" value="{126,- It filters garbage data and produces error free outputs to the &#xa;user - for example if an operator is pressed more than once.,0}" leadInLength="0/1"  />
           <Keyframe id="1002"  time="2009/1" value="{48,- It works with negative values and percentages.,0}" leadInLength="0/1"  />
           <Keyframe id="1003"  time="2194/1" value="{141,User Accessibility and Usability is implemented via keyboard &#xa;navigation, Mnemonics, Hot Keys, Tool Tips and change of &#xa;System Colour Scheme.,0}" leadInLength="0/1"  />
           <Keyframe id="1004"  time="2420/1" value="{108,For example visually impaired people can use screen reader &#xa;software to navigate around with the TAB button.,0}" leadInLength="0/1"  />
           <Keyframe id="1005"  time="2633/1" value="{102,Pressing ALT on your keyboard activates Mnemonics that &#xa;underlines frequentlly used buttons and menus.,0}" leadInLength="0/1"  />
           <Keyframe id="1006"  time="2808/1" value="{105,In this case last entry is deleted by pressing &apos;D&apos; button &#xD;and with &apos;C&apos; you can clear all of the entries.,0}" leadInLength="0/1"  />
           <Keyframe id="1007"  time="2967/1" value="{49,Like so users can access the menu by pressing &apos;M&apos;,0}" leadInLength="0/1"  />
           <Keyframe id="1008"  time="3099/1" value="{61,and by selecting the hot key &apos;Ctrl + C&apos; you can exit the app.,0}" leadInLength="0/1"  />
           <Keyframe id="1009"  time="3226/1" value="{123,Yet other helpful feature is the High Contrast function that &#xa;performs validation over the Windows OS system colour scheme.,0}" leadInLength="0/1"  />
           <Keyframe id="1010"  time="3383/1" value="{79,In this mode other users can still access all of the functions &#xa;within the app.,0}" leadInLength="0/1"  />
           <Keyframe id="1011"  time="3520/1" value="{103,Tool Tips are very good way to tell and inform users how to use &#xa;the application and make their choice.,0}" leadInLength="0/1"  />
           <Keyframe id="1012"  time="3771/1" value="{24,Thank you for watching. ,0}" leadInLength="0/1"  />
           </Keyframes>
          </Parameter>
          <Parameter id="1013"  name="toc"/>
          <Parameter id="1014"  name="quiz"/>
         </Parameters>
         <Attributes>
         </Attributes>
         <MetaData>
          <entry key="WinSubProjectDisplayName" val=""/>
         </MetaData>
        </Caption>
        <Caption id="1015" start="1285" duration="2555" scalar="1/1" mediaStart="1229/1" mediaDuration="2555/1" maxMediaDuration="9.22337e+018"  allowTrimOut="1"  >
         <Parameters>
          <Parameter id="1016"  name="captionData">
           <Keyframes>
           <Keyframe id="1017"  time="-9999999/1" value="{28,Istalling Windows Calculator,0}" leadInLength="0/1"  />
           <Keyframe id="1018"  time="111/1" value="{60,Custom made InstallShield Project build inside Visual Studio,0}" leadInLength="0/1"  />
           <Keyframe id="1019"  time="286/1" value="{0,,0}" leadInLength="0/1"  />
           <Keyframe id="1020"  time="716/1" value="{57,- Users can change the mathematical operator at any time;,0}" leadInLength="0/1"  />
           <Keyframe id="1021"  time="1532/1" value="{132,- Some of the processes happening behind the scenes are: &#xD;User Input Validation, Error Handling for smooth application &#xa;performance.,0}" leadInLength="0/1"  />
           <Keyframe id="1022"  time="1725/1" value="{126,- It filters garbage data and produces error free outputs to the &#xa;user - for example if an operator is pressed more than once.,0}" leadInLength="0/1"  />
           <Keyframe id="1023"  time="1912/1" value="{48,- It works with negative values and percentages.,0}" leadInLength="0/1"  />
           <Keyframe id="1024"  time="2164/1" value="{141,User Accessibility and Usability is implemented via keyboard &#xa;navigation, Mnemonics, Hot Keys, Tool Tips and change of &#xa;System Colour Scheme.,0}" leadInLength="0/1"  />
           <Keyframe id="1025"  time="2358/1" value="{108,For example visually impaired people can use screen reader &#xa;software to navigate around with the TAB button.,0}" leadInLength="0/1"  />
           <Keyframe id="1026"  time="2575/1" value="{102,Pressing ALT on your keyboard activates Mnemonics that &#xa;underlines frequentlly used buttons and menus.,0}" leadInLength="0/1"  />
           <Keyframe id="1027"  time="2720/1" value="{105,In this case last entry is deleted by pressing &apos;D&apos; button &#xD;and with &apos;C&apos; you can clear all of the entries.,0}" leadInLength="0/1"  />
           <Keyframe id="1028"  time="2874/1" value="{49,Like so users can access the menu by pressing &apos;M&apos;,0}" leadInLength="0/1"  />
           <Keyframe id="1029"  time="3000/1" value="{61,and by selecting the hot key &apos;Ctrl + C&apos; you can exit the app.,0}" leadInLength="0/1"  />
           <Keyframe id="1030"  time="3108/1" value="{123,Yet other helpful feature is the High Contrast function that &#xa;performs validation over the Windows OS system colour scheme.,0}" leadInLength="0/1"  />
           <Keyframe id="1031"  time="3257/1" value="{79,In this mode other users can still access all of the functions &#xa;within the app.,0}" leadInLength="0/1"  />
           <Keyframe id="1032"  time="3402/1" value="{103,Tool Tips are very good way to tell and inform users how to use &#xa;the application and make their choice.,0}" leadInLength="0/1"  />
           <Keyframe id="1033"  time="3671/1" value="{24,Thank you for watching. ,0}" leadInLength="0/1"  />
           </Keyframes>
          </Parameter>
          <Parameter id="1034"  name="toc"/>
          <Parameter id="1035"  name="quiz"/>
         </Parameters>
         <Attributes>
         </Attributes>
         <MetaData>
          <entry key="WinSubProjectDisplayName" val=""/>
         </MetaData>
        </Caption>
       </Medias>
      </GenericTrack>
      <GenericTrack id="1036"  >
       <Attributes>
        <Attribute id="1037" value="" name="ident"/>
        <Attribute id="1038" value="0" name="audioMuted"/>
        <Attribute id="1039" value="0" name="videoHidden"/>
       </Attributes>
       <MetaData>
        <entry key="IsLocked" val="False"/>
        <entry key="WinTrackHeight" val="62"/>
       </MetaData>
       <Medias>
       </Medias>
      </GenericTrack>
     </Tracks>
    </GenericMixer>
   <CaptionAttributes id="1040"  >
    <Attribute id="1041" value="1" name="captionsEnabled"/>
    <Attribute id="1042" value="Arial" name="captionsFontName"/>
    <Attribute id="1043" value="20" name="captionsFontSize"/>
    <Attribute id="1044" value="(0,0,0,255)" name="captionsBackgroundColor"/>
    <Attribute id="1045" value="(255,255,255,255)" name="captionsForegroundColor"/>
    <Attribute id="1046" value="en" name="lang"/>
    <Attribute id="1047" value="2" name="captionsAlignment"/>
    <Attribute id="1048" value="0" name="captionsDefaultFontSize"/>
    <Attribute id="1049" value="0.25" name="captionsOpacity"/>
    <Attribute id="1050" value="1" name="captionsBackgroundEnabled"/>
    <Attribute id="1051" value="1" name="captionsBackgroundOnlyAroundText"/>
   </CaptionAttributes>
   <Parameters>
    <VectorParam id="1052"  name="eyePosition">
     <InterpolatingParam id="1053" interp="linr"  time="0/1" value="0" leadInLength="0/1"  />
     <InterpolatingParam id="1054" interp="linr"  time="0/1" value="0" leadInLength="0/1"  />
     <InterpolatingParam id="1055" interp="linr"  time="0/1" value="3000" leadInLength="0/1"  />
    </VectorParam>
    <VectorParam id="1056"  name="eyeLookAtPosition">
     <InterpolatingParam id="1057" interp="linr"  time="0/1" value="0" leadInLength="0/1"  />
     <InterpolatingParam id="1058" interp="linr"  time="0/1" value="0" leadInLength="0/1"  />
     <InterpolatingParam id="1059" interp="linr"  time="0/1" value="0" leadInLength="0/1"  />
    </VectorParam>
    <VectorParam id="1060"  name="eyeUpVector">
     <InterpolatingParam id="1061" interp="linr"  time="0/1" value="0" leadInLength="0/1"  />
     <InterpolatingParam id="1062" interp="linr"  time="0/1" value="1" leadInLength="0/1"  />
     <InterpolatingParam id="1063" interp="linr"  time="0/1" value="0" leadInLength="0/1"  />
    </VectorParam>
    <InterpolatingParam id="1064" interp="linr"  time="0/1" value="0.23885785" leadInLength="0/1"  name="fov"/>
    <InterpolatingParam id="1065" interp="linr"  time="0/1" value="1.5" leadInLength="0/1"  name="nearClipDistance"/>
    <InterpolatingParam id="1066" interp="linr"  time="0/1" value="6000" leadInLength="0/1"  name="farClipDistance"/>
   </Parameters>
  </Timeline>
 </Project>
</GoProject>
</CSMLData>

</Project_Data>
